ProbingNefhalzerdeSans.sfdir
StartChar: quotedbl
Encoding: 34 34 141
Width: 340
Flags: W
HStem: -40 249<72 107 212 247>
VStem: 52 236
LayerCount: 2
Fore
SplineSet
212 209 m 5
 288 209 l 29
 247 -40 l 1
 192 -40 l 1
 212 209 l 5
72 209 m 5
 148 209 l 29
 107 -40 l 1
 52 -40 l 1
 72 209 l 5
EndSplineSet
EndChar
StartChar: quotesingle
Encoding: 39 39 47
Width: 200
Flags: W
HStem: -40 249<72 127>
VStem: 62 76<46.7425 209> 72 55<-40 122.257>
LayerCount: 2
Fore
SplineSet
62 209 m 1xc0
 138 209 l 25xc0
 137 -40 l 5
 82 -40 l 5xa0
 62 209 l 1xc0
EndSplineSet
EndChar
StartChar: parenleft
Encoding: 40 40 142
Width: 390
Flags: W
HStem: 223 60<80 294> 486 20G<156 264>
VStem: 257 66<79.2101 372.073> 257 37<223 283>
LayerCount: 2
Back
SplineSet
128 534 m 17
 203 462 240 360.158203125 240 196 c 3
 240 19 153 -120 13 -174 c 1033
EndSplineSet
Fore
SplineSet
230 506 m 5xe0
 298 433 323 348 323 222 c 7
 323 27 231 -107 106 -178 c 5
 83 -178 l 5
 83 -115 l 5
 179 -57 257 49 257 222 c 7
 257 356 223 424 156 489 c 5
 156 506 l 29
 230 506 l 5xe0
80 223 m 5
 80 283 l 5
 294 283 l 5
 294 223 l 5xd0
 80 223 l 5
EndSplineSet
EndChar
StartChar: parenright
Encoding: 41 41 143
Width: 390
Flags: W
HStem: 223 60<96 310> 664 20G<221.5 307>
VStem: 67 66<133.927 426.79> 96 37<223 283>
LayerCount: 2
Fore
SplineSet
160 0 m 1xe0
 92 73 67 158 67 284 c 3
 67 479 159 613 284 684 c 1
 307 684 l 1
 307 621 l 1
 211 563 133 457 133 284 c 3
 133 150 167 82 234 17 c 1
 234 0 l 25
 160 0 l 1xe0
310 283 m 1
 310 223 l 1
 96 223 l 1
 96 283 l 1xd0
 310 283 l 1
EndSplineSet
EndChar
StartChar: comma
Encoding: 44 44 39
Width: 200
Flags: W
HStem: -40 249<82 137>
VStem: 62 76<119.758 209> 82 55<-40 49.2416>
LayerCount: 2
Fore
SplineSet
62 209 m 1xc0
 138 209 l 25xc0
 137 -40 l 5
 82 -40 l 5xa0
 62 209 l 1xc0
EndSplineSet
EndChar
StartChar: hyphen
Encoding: 45 45 40
Width: 420
Flags: W
HStem: -4 21G<32 62.6437 361.893 388> 26 74<101.325 323.21>
LayerCount: 2
Fore
SplineSet
32 38 m 1
 85 75 134.936523438 100 210 100 c 3
 296.8046875 100 344 72 388 38 c 1
 388 -4 l 1
 335.785341561 21.5514886415 285.808421062 26 210 26 c 3
 134.790806619 26 93.2873456933 21.0028183331 32 -4 c 1
 32 38 l 1
EndSplineSet
EndChar
StartChar: period
Encoding: 46 46 38
Width: 300
Flags: W
HStem: 691 43<220.011 287>
VStem: 15 82<504 572.158>
LayerCount: 2
Fore
SplineSet
97 504 m 1
 15 504 l 1
 15 515 l 1
 53 646 152 719 276 734 c 1
 287 734 l 1
 287 691 l 1
 174 670 111 596 97 504 c 1
EndSplineSet
EndChar
StartChar: slash
Encoding: 47 47 130
Width: 460
Flags: W
HStem: 486 20G<60 135.933 324.133 400>
VStem: 198 66<0 188>
LayerCount: 2
Fore
SplineSet
263 188 m 1
 200 206 l 1
 333 506 l 1
 400 506 l 1
 400 490 l 1
 263 188 l 1
264 0 m 1
 198 0 l 1
 198 188 l 1
 60 490 l 1
 60 506 l 1
 127 506 l 1
 261 206 l 1
 264 194 l 1
 264 0 l 1
EndSplineSet
EndChar
StartChar: zero
Encoding: 48 48 131
Width: 500
Flags: W
HStem: 490 20G<205.561 281.967>
LayerCount: 2
Fore
SplineSet
213 510 m 1
 274 510 l 1
 470 18 l 1
 470 0 l 1
 404 0 l 1
 246 419 l 1
 240 419 l 1
 96 0 l 1
 30 0 l 1
 30 18 l 1
 213 510 l 1
EndSplineSet
EndChar
StartChar: one
Encoding: 49 49 132
Width: 500
Flags: W
HStem: 442 60<128 252>
VStem: 252 66<0 442>
LayerCount: 2
Fore
SplineSet
128 442 m 1
 128 502 l 1
 318 502 l 1
 318 0 l 1
 252 0 l 1
 252 442 l 1
 128 442 l 1
EndSplineSet
EndChar
StartChar: two
Encoding: 50 50 134
Width: 500
Flags: W
HStem: 486 20G<52 134.347 365.653 448>
LayerCount: 2
Back
SplineSet
454 440 m 7xe8
 454 338.98046875 377.221679688 270.354492188 271.995117188 227.315429688 c 4
 181 190.09765625 116 154.546875 116 57 c 4
 116 34.4697265625 118 33.3466796875 122 9 c 5
 122 0 l 5
 53 0 l 5
 50 25.779296875 50 28.8818359375 50 60 c 4
 50 183.090820312 151 245.133789062 245.696289062 283.711914062 c 4
 343.989257812 323.754882812 388 378.87890625 388 445 c 7xe8
 388 462 387 476 379 490 c 5
 379 506 l 5
 446 506 l 5xf0
 452 492 454 478 454 440 c 7xe8
EndSplineSet
Fore
SplineSet
448 493 m 1
 118 0 l 1
 50 0 l 1
 50 13 l 1
 379 506 l 1
 448 506 l 1
 448 493 l 1
52 493 m 1
 52 506 l 1
 121 506 l 1
 450 13 l 1
 450 0 l 1
 382 0 l 1
 52 493 l 1
EndSplineSet
EndChar
StartChar: three
Encoding: 51 51 135
Width: 500
Flags: W
HStem: 0 60<168 432> 482 20G<102 168>
VStem: 102 66<60 502>
LayerCount: 2
Fore
SplineSet
432 60 m 5
 432 0 l 5
 102 0 l 5
 102 502 l 5
 168 502 l 5
 168 60 l 5
 432 60 l 5
EndSplineSet
EndChar
StartChar: four
Encoding: 52 52 138
Width: 500
Flags: W
HStem: -4 64<50 104.969> 442 60<55 379>
LayerCount: 2
Fore
SplineSet
449 446 m 1
 377 169 217 50 64 -4 c 5
 50 -4 l 5
 50 60 l 5
 178 98 328 228 379 442 c 1
 55 442 l 1
 55 502 l 1
 449 502 l 1
 449 446 l 1
92 329 m 1
 92 342 l 1
 163 342 l 1
 450 13 l 1
 450 0 l 1
 381 0 l 1
 92 329 l 1
EndSplineSet
EndChar
StartChar: five
Encoding: 53 53 136
Width: 510
Flags: W
HStem: -4 60<163.555 347.313> 486 20G<82 148> 624 60<370.16 429>
VStem: 82 66<0 506> 281 68<425.116 604.525> 381 66<93.2394 284.719>
LayerCount: 2
Fore
SplineSet
152 82.0712890625 m 1
 212.455078125 61.0673828125 253 56 292 56 c 3
 334.047592083 56 381 87.8583984375 381 176 c 3
 381 312.002929688 281 392 281 530 c 3
 281 640 344.342773438 684 429 684 c 1
 429 624 l 1
 372 624 349 592.309570312 349 534 c 3
 349 401.987304688 447 312.26953125 447 182 c 3
 447 61.962890625 394.445542375 -4 282 -4 c 3
 232.197265625 -4 178.643554688 6.9990234375 128 30.0107421875 c 1
 152 82.0712890625 l 1
82 0 m 1
 82 506 l 1
 148 506 l 1
 148 0 l 17
 82 0 l 1
EndSplineSet
EndChar
StartChar: six
Encoding: 54 54 137
Width: 500
Flags: W
HStem: -178 58<238 307.031> -4 60<170.095 298.554> 450 60<189.791 361.401>
VStem: 52 66<119.814 358.585> 362 66<-67.3866 52 110.838 442.374>
LayerCount: 2
Fore
SplineSet
428 82 m 0
 428 -78 408 -152 256 -178 c 5
 238 -178 l 5
 238 -120 l 1
 342 -106 362 -58 362 52 c 1
 317 6 262.970703125 -4 211 -4 c 3
 142.880859375 -4 52 67 52 230 c 0
 52 426 157.909179688 510 254 510 c 3
 338 510 386 501 428 487 c 1
 428 487 428 211 428 82 c 0
362 434 m 1
 339 447 298 450 246 450 c 3
 184 450 118 376 118 235 c 0
 118 111 174.794921875 56 217 56 c 3
 254 56 305 65 362 134 c 1
 362 434 l 1
EndSplineSet
EndChar
StartChar: seven
Encoding: 55 55 139
Width: 500
Flags: W
HStem: 4 60<139 449> 442 60<58 353>
LayerCount: 2
Fore
SplineSet
139 64 m 1
 449 64 l 1
 449 4 l 1
 46 4 l 1
 46 54 l 1
 353 442 l 1
 58 442 l 1
 58 502 l 1
 446 502 l 1
 446 452 l 1
 139 64 l 1
EndSplineSet
EndChar
StartChar: eight
Encoding: 56 56 133
Width: 500
Flags: W
HStem: -192 59<36 122.662> 486 20G<30 109.115 388.644 470>
LayerCount: 2
Fore
SplineSet
284 55 m 1
 242 -34 l 1
 30 488 l 1
 30 506 l 1
 101 506 l 1
 284 55 l 1
470 506 m 1
 470 491 l 1
 312 18 l 2
 259.0711712 -140.451493812 187 -172 54 -192 c 1
 36 -192 l 1
 36 -133 l 1
 146 -119 208.890010682 -79.6260997207 245 34 c 2
 395 506 l 1
 470 506 l 1
EndSplineSet
EndChar
StartChar: nine
Encoding: 57 57 140
Width: 500
Flags: W
HStem: -4 64<50 99.9596> 438 60<130 379> 664 20G<70 130>
VStem: 70 60<498 684>
LayerCount: 2
Fore
SplineSet
379 444 m 1
 70 438 l 1
 70 684 l 1
 130 684 l 1
 130 498 l 1
 450 504 l 1
 450 448 l 1
 378 171 217 50 64 -4 c 5
 50 -4 l 5
 50 60 l 5
 178 98 328 230 379 444 c 1
92 329 m 1
 92 342 l 1
 163 342 l 1
 450 13 l 1
 450 0 l 1
 381 0 l 1
 92 329 l 1
EndSplineSet
EndChar
StartChar: a
Encoding: 97 97 12
Width: 540
Flags: W
HStem: -4 21G<233.382 311.415> 486 20G<30 104.305 435.981 510>
LayerCount: 2
Back
SplineSet
26 548 m 5
 304 0 l 5
 446 344 l 6
 470.979492188 404.514648438 500 489.322265625 500 556 c 7
 500 651 382 708 286 708 c 7
 174 708 64 680 -34 646 c 1037
EndSplineSet
Fore
SplineSet
303 -4 m 1
 242 -4 l 1
 30 488 l 1
 30 506 l 1
 96 506 l 1
 270 87 l 1
 276 87 l 1
 444 506 l 1
 510 506 l 1
 510 488 l 1
 303 -4 l 1
EndSplineSet
EndChar
StartChar: b
Encoding: 98 98 20
Width: 630
Flags: W
HStem: -4 60<195.925 376.313> 408.528 61.4717<297.53 359> 664 62.8438<275.832 394> 678 60<211.041 393.069>
VStem: 77 66<109.504 287.296> 107 66<495.405 639.769> 468 66<0 116.518 157.98 734>
LayerCount: 2
Back
SplineSet
458 734 m 29
 458 0 l 1053
354 686 m 21
 313 701 272 708 230 708 c 7
 148.328746832 708 95 657.060546875 95 564 c 7
 95 459 192 403 308 437 c 5
 156 391 65 318 65 193 c 31
 65 98 144 26 239 26 c 7
 312 26 402 52 452 110 c 1037
EndSplineSet
Fore
SplineSet
274 678 m 0xd6
 230.754882812 678 173 649.341796875 173 567 c 0xd6
 173 498.711914062 215.267578125 457.071289062 282.999023438 457.071289062 c 0
 304.06640625 457.071289062 325.032226562 462.147460938 348 470 c 1
 359 470 l 1
 359.41796875 408.528320312 l 1
 246.541015625 374.368164062 143 325.305664062 143 196 c 0
 143 100.418945312 200.203125 56 276 56 c 3
 337 56 404 74 472.889648438 157.98046875 c 1
 506.987304688 116.517578125 l 1
 424 18 347.1015625 -4 268 -4 c 3
 158.796875 -4 77 64.5810546875 77 196 c 0xda
 77 290.50390625 131 370 218 408.42578125 c 1
 216.508789062 414.508789062 l 1
 150.390625 425.231445312 107 488.114257812 107 564 c 0
 107 687.576171875 196.056640625 738 273 738 c 0xd6
 319.131835938 738 352.536132812 735.220703125 394.30078125 726.84375 c 1
 394 664 l 1xe6
 380.428710938 663.791992188 l 1
 342.709960938 674.591796875 313.22265625 678 274 678 c 0xd6
468 734 m 1
 534 734 l 1
 534 0 l 1
 468 0 l 1
 468 734 l 1
EndSplineSet
EndChar
StartChar: c
Encoding: 99 99 28
Width: 530
Flags: W
HStem: 0 21G<96 162 388 454> 145 62<136 196.35> 450 60<195.05 341.128> 680 56<251.301 304>
VStem: 96 66<0 145 207 408 424 577.877> 359 66<317.744 433.567> 388 70<0 149.077>
LayerCount: 2
Back
SplineSet
435 474 m 29
 111 474 l 29
 111 130 l 21
 180 152 260 169 330 169 c 7
 421.59148432 169 525 133 525 17 c 31
 525 -96 422 -152 330 -152 c 7
 248 -152 138 -135 28 -100 c 1037
EndSplineSet
Fore
SplineSet
284 450 m 3xfc
 248 450 213.864257812 441.576171875 159 408 c 1
 135 459 l 1
 194 497 245 510 291 510 c 3
 374 510 425 464.05859375 425 382 c 3xfc
 425 300.936523438 359 253 322 235 c 1
 323 231 l 1
 400 227 458 169 458 76 c 3
 458 43.365234375 456 16 452 0 c 1
 388 0 l 1
 388 16 l 1xfa
 391 35 392 58.6953125 392 80 c 3
 392 144 353 178 272 178 c 3
 233 178 189 165 147 145 c 1
 136 145 l 1
 136 207 l 1
 273 249 359 308.846679688 359 372 c 3
 359 429 328 450 284 450 c 3xfc
304 680 m 1
 184 652 162 554 162 424 c 2
 162 0 l 1
 96 0 l 1
 96 426 l 2
 96 594 140 704 291 736 c 1
 304 736 l 1
 304 680 l 1
EndSplineSet
EndChar
StartChar: d
Encoding: 100 100 15
Width: 620
Flags: W
HStem: -4 60<193.079 332.177> 438 60<156 482.448> 446 60<194.688 528>
VStem: 90 66<94.375 438>
LayerCount: 2
Fore
SplineSet
319 468 m 1x90
 386 480 l 1
 557 18 l 1
 557 0 l 1
 489 0 l 1
 319 468 l 1x90
156 438 m 5xd0
 156 174 l 6
 156 119 182 56 250 56 c 4
 321 56 388 106 444 176 c 5
 480 145 l 5
 434 73 352 -4 245 -4 c 4
 135 -4 90 76 90 174 c 6
 90 498 l 5xd0
 528 506 l 5
 528 446 l 5xb0
 156 438 l 5xd0
EndSplineSet
EndChar
StartChar: e
Encoding: 101 101 0
Width: 580
Flags: W
HStem: -4 60<189.012 324.622> 486 20G<90 156 422 488>
VStem: 90 66<90.2155 506> 422 66<0 145 173 506>
LayerCount: 2
Back
SplineSet
115 456 m 1
 115 168 l 18
 115 102 147.22265625 23 218 23 c 3
 299.221679688 23 367 84 412 150 c 1033
EndSplineSet
Fore
SplineSet
422 506 m 5
 488 506 l 29
 488 0 l 5
 422 0 l 29
 422 506 l 5
90 506 m 1
 156 506 l 1
 156 174 l 2
 156 119 177 56 245 56 c 3
 316 56 369 103 425 173 c 1
 460 145 l 1
 414 73 347 -4 240 -4 c 3
 130 -4 90 76 90 174 c 2
 90 506 l 1
EndSplineSet
EndChar
StartChar: f
Encoding: 102 102 23
Width: 770
Flags: W
HStem: -182 60<482.97 602.664> -4 60<187.088 309.84> 450 60<214.119 389.596> 670 64<733.671 770>
VStem: 72 66<118.144 358.585> 392 66<-94.5565 82 136.678 438.135> 603 65<-117.509 604.111>
LayerCount: 2
Back
SplineSet
392 82 m 5
 347 21 298 -4 231 -4 c 4
 146 -4 72 67 72 230 c 4
 72 426 177 510 294 510 c 4
 378 510 416 490 458 476 c 5
 458 476 458 97 458 -32 c 4
 458 -75 485 -122 530 -122 c 4
 573 -122 602 -79 602 -35 c 4
 602 445 l 4
 602 613 626 678 757 734 c 5
 770 734 l 5
 770 670 l 5
 668 626 668 564 668 434 c 4
 668 -32 l 4
 668 -112 613 -182 527 -182 c 4
 441 -182 392 -114 392 -35 c 4
 392 82 l 5
392 426 m 5
 369 442 340 450 288 450 c 4
 198 450 138 376 138 235 c 4
 138 111 187 56 237 56 c 4
 294 56 335 85 392 164 c 5
 392 426 l 5
92 231 m 3
 92 427 210.673828125 510 304 510 c 3
 368.125 510 416 494 458 472 c 1
 458 170 l 1026
392 214 m 1
 392 422 l 1
 368 442 332 450 298 450 c 3
 224.08203125 450 158 377 158 236 c 1027
EndSplineSet
Fore
SplineSet
392 82 m 1
 347 21 298 -4 231 -4 c 0
 146 -4 72 67 72 230 c 0
 72 426 177 510 294 510 c 0
 378 510 416 490 458 476 c 1
 458 476 458 97 458 -32 c 4
 458 -75 485 -122 530 -122 c 4
 562 -122 589 -120 603 -106 c 13
 602 445 l 0
 602 613 626 678 757 734 c 1
 770 734 l 1
 770 670 l 1
 668 626 668 564 668 434 c 0
 668 -150 l 21
 634 -170 593 -182 527 -182 c 4
 441 -182 392 -114 392 -35 c 4
 392 82 l 1
392 426 m 1
 369 442 340 450 288 450 c 0
 198 450 138 376 138 235 c 0
 138 111 187 56 237 56 c 0
 294 56 335 85 392 164 c 1
 392 426 l 1
EndSplineSet
EndChar
StartChar: g
Encoding: 103 103 29
Width: 640
Flags: W
HStem: -4 60<161.404 362.817> 654 67<77 210.391> 678 60<95.8933 360.073>
VStem: 94 66<61.5701 341> 502 66<229.244 514.962>
LayerCount: 2
Fore
SplineSet
502 369 m 3xb8
 502 538.612304688 428 678 255 678 c 3xb8
 195 678 149 670 90 654 c 1
 77 654 l 1
 77 721 l 1xd8
 146 735 211 738 262 738 c 3
 494 738 568 574.271484375 568 371 c 3
 568 114.954101562 440 -4 271 -4 c 7
 224 -4 154 -1 94 13 c 13
 94 70 l 5
 94 341 l 5
 160 341 l 5
 160 65 l 5
 198 58 230 56 274 56 c 7
 404 56 502 180.989257812 502 369 c 3xb8
EndSplineSet
Substitution2: "nasalize-1" eng
EndChar
StartChar: h
Encoding: 104 104 9
Width: 770
Flags: W
HStem: -182 60<482.97 602.664> 450 60<228.735 354.787> 670 64<733.671 770>
VStem: 92 66<0 506> 392 66<-94.5565 409.037> 602 66<-117.792 604.111>
LayerCount: 2
Back
SplineSet
394 78 m 5
 394 -104 l 22
 394 -152 411.55078125 -202 476 -202 c 7
 534.36328125 -202 556 -158 556 -104 c 14
 556 74 l 1029
EndSplineSet
Fore
SplineSet
668 -150 m 21
 634 -170 593 -182 527 -182 c 0
 441 -182 392 -114 392 -35 c 0
 392 94 392 203 392 332 c 0
 392 387 360 450 303 450 c 0
 246 450 199 417 150 347 c 1
 115 375 l 1
 156 447 228 510 308 510 c 0
 408 510 458 430 458 332 c 0
 458 203 458 97 458 -32 c 0
 458 -75 485 -122 530 -122 c 0
 562 -122 589 -120 603 -106 c 9
 603 109 602 282 602 445 c 0
 602 613 626 678 757 734 c 1
 770 734 l 1
 770 670 l 1
 668 626 668 564 668 434 c 0
 668 271 668 78 668 -150 c 21
158 0 m 1
 92 0 l 1
 92 506 l 1
 158 506 l 25
 158 0 l 1
EndSplineSet
EndChar
StartChar: i
Encoding: 105 105 3
Width: 460
Flags: W
HStem: -178 62<129 171.059> 486 20G<301 367> 670 66<259.926 300>
VStem: 92 66<169 565.424> 301 66<10.5989 506>
LayerCount: 2
Back
SplineSet
310 734 m 5
 310 721 l 5
 181 655 150 587 150 473 c 6
 150 168 l 5
 84 168 l 5
 84 480 l 6
 84 599 116 670 213 734 c 5
 310 734 l 5
111 4 m 1
 111 425 l 2
 111 484 127 601 293 686 c 1025
55 -158 m 1
 139 -97 168 -24 168 49 c 2
 168 456 l 1
 234 456 l 1
 234 50 l 2
 234 -50 204 -128 70 -228 c 1
 55 -228 l 1
 55 -158 l 1
245 684 m 1
 245 676 l 1
 64 393 l 1
 56 393 l 1
 56 500 l 1
 174 684 l 1
 245 684 l 1
250 708 m 1
 38 376 l 1025
321 454 m 1
 321 33 l 2
 321 -75 279 -165 55 -228 c 1025
EndSplineSet
Fore
SplineSet
300 670 m 1
 180 619 158 554 158 424 c 2
 158 169 l 1
 92 169 l 1
 92 426 l 2
 92 594 136 674 287 736 c 1
 300 736 l 1
 300 670 l 1
129 -116 m 5
 259 -59 301 2 301 132 c 6
 301 506 l 5
 367 506 l 5
 367 132 l 6
 367 -36 303 -110 142 -178 c 5
 129 -178 l 5
 129 -116 l 5
EndSplineSet
EndChar
StartChar: j
Encoding: 106 106 6
Width: 580
Flags: W
HStem: 450 60<269.653 388.035> 714 20G<96 162>
VStem: 96 66<0 734> 424 66<0 409.029>
LayerCount: 2
Back
SplineSet
294 -116 m 5
 424 -59 436 2 436 132 c 4
 436 198.666666667 436 255.333007812 436 322 c 4
 436 377 415 450 347 450 c 4
 276 450 224.896522299 402 156.165039062 276.251953125 c 5
 116.834960938 297.748046875 l 5
 174.308742263 436 245 510 352 510 c 4
 462 510 502 420 502 322 c 4
 502 255.333007812 502 198.666666667 502 132 c 4
 502 -36 468 -110 307 -178 c 5
 294 -178 l 5
 294 -116 l 5
EndSplineSet
Fore
SplineSet
490 0 m 1
 424 0 l 1
 424 322 l 2
 424 377 403 450 335 450 c 3
 264 450 214 385 157.165039062 276.251953125 c 5
 117.834960938 297.748046875 l 5
 167 413 233 510 340 510 c 3
 450 510 490 420 490 322 c 2
 490 0 l 1
162 0 m 1
 96 0 l 1
 96 734 l 1
 162 734 l 25
 162 0 l 1
EndSplineSet
Substitution2: "voiceless-1" ccedilla
EndChar
StartChar: k
Encoding: 107 107 17
Width: 860
Flags: W
HStem: -182 60<287.116 536.669> 0 60<381 560> 215 60<385 462> 450 60<274.979 478.731> 670 64<823.671 860>
VStem: 62 66<43.9027 286.554> 692 66<37.2497 604.111>
LayerCount: 2
Back
SplineSet
692 445 m 2
 692 560 698.549261677 681.906010092 847 734 c 1
 860 734 l 1
 860 670 l 1
 762 624 758 570 758 434 c 2
 758 10 l 17
 672 -114 584.043710627 -182 401 -182 c 3
 201 -182 62 -54.7744140625 62 165 c 3
 62 380.352539062 209 510 359 510 c 3
 426 510 491 508 571 494 c 1
 571 445 l 1
 385 275 l 1
 559 275 l 1
 559 225 l 1
 381 60 l 1
 560 61 l 1
 560 1 l 1
 282 0 l 1
 282 50 l 1
 462 215 l 1
 289 215 l 1
 288 264 l 1
 480 443 l 1
 430 449 405 450 359 450 c 3
 255 450 128 350.654296875 128 165 c 3
 128 -29.3662109375 260 -122 401 -122 c 3
 566 -122 646 -42 692 36 c 9
 692 445 l 2
732 445 m 2xee
 732 613 756 678 887 734 c 1
 900 734 l 1
 900 670 l 1xf6
 798 626 798 564 798 434 c 2
 798 167 l 2
 798 -72.443359375 667.2421875 -182 437 -182 c 3
 166.525390625 -182 65 -31.94921875 65 251 c 3
 65 511.82421875 149.018554688 738 395 738 c 3xee
 479.301757812 738 537 733.970703125 617 718 c 1
 617 670 l 1xf6
 386 377 l 1
 605 377 l 1
 605 327 l 1
 388 60 l 1
 606 61 l 1
 606 1 l 1
 288 0 l 1
 288 50 l 1
 505 317 l 1
 292 317 l 1
 291 366 l 1
 531 668 l 1
 481 677 453 678 395 678 c 3
 199.01171875 678 131 474.973632812 131 251 c 3
 131 0.07421875 228.846679688 -122 437 -122 c 3
 619 -122 732 -40.9521484375 732 167 c 2
 732 445 l 2xee
EndSplineSet
Fore
SplineSet
692 445 m 2
 692 613 716 678 847 734 c 1
 860 734 l 1
 860 670 l 1
 758 626 758 564 758 434 c 2
 758 177 l 17
 758 -62 631 -182 401 -182 c 3
 201 -182 62 -54.7744140625 62 165 c 3
 62 380.352539062 209 510 359 510 c 3
 426 510 491 508 571 494 c 1
 571 445 l 1
 385 275 l 1
 559 275 l 1
 559 225 l 1
 381 60 l 1
 560 61 l 1
 560 1 l 1
 282 0 l 1
 282 50 l 1
 462 215 l 1
 289 215 l 1
 288 264 l 1
 480 443 l 1
 430 449 405 450 359 450 c 3
 255 450 128 350.654296875 128 165 c 3
 128 -29.3662109375 260 -122 401 -122 c 3
 583 -122 692 -31 692 177 c 9
 692 445 l 2
EndSplineSet
Substitution2: "aspirated-1" uni013C
EndChar
StartChar: l
Encoding: 108 108 11
Width: 590
Flags: W
HStem: -4 60<187.164 329.462> 486 20G<90 156> 642 71<146 213.201> 678 60<190.163 378.915>
VStem: 90 66<89.2905 506> 430 66<0 620.035>
LayerCount: 2
Fore
SplineSet
430 508 m 3xdc
 430 618.624023438 392.224609375 678 306 678 c 3xdc
 259 678 223 671.697265625 156 642 c 1
 146 642 l 1
 146 713 l 1xec
 213 734.198242188 256 738 312 738 c 3
 414.067382812 738 496 701.078125 496 498 c 3
 496 422 496 0 496 0 c 1
 430 0 l 25
 430 214 430 427 430 508 c 3xdc
90 506 m 1
 156 506 l 1
 156 174 l 2
 156 119 174 56 243 56 c 3
 317 56 376 98 435 173 c 1
 470 145 l 1
 420 68 345 -4 238 -4 c 3
 128 -4 90 76 90 174 c 2
 90 506 l 1
EndSplineSet
Substitution2: "voiceless-1" uni013C
EndChar
StartChar: m
Encoding: 109 109 18
Width: 890
Flags: W
HStem: -4 60<204.262 336.567 538.659 677.246> 486 20G<105 203> 667 63<438 561.085> 678 60<439.313 633.769>
VStem: 72 66<138.66 415.976> 405 66<137.445 476> 748 66<156.623 520.033>
LayerCount: 2
Back
SplineSet
738 734 m 1xf8
 729 190 l 1
 729 30 633.147460938 -6 565 -6 c 3
 487 -6 418 31 401 106 c 1
 396 106 l 1
 372 34 321.254882812 -4 243 -4 c 0
 110.40625 -4 72 120.124023438 72 252 c 0
 72 347 83 434 127 506 c 1
 203 506 l 1
 203 496 l 1
 152 429 138 356 138 252 c 0
 138 159.555664062 155.634765625 56 247 56 c 0
 338.8203125 56 369 148 369 239 c 2
 369 476 l 1
 435 476 l 1
 435 239 l 2
 435 117 483.349609375 56 565 56 c 3
 630 56 672 106 672 200 c 1xf4
 672 734 l 1
 738 734 l 1xf8
738 734 m 1xf8
 729 83 l 1
 678 20 633.147460938 -6 565 -6 c 3
 487 -6 418 31 401 106 c 1
 396 106 l 1
 372 34 321.254882812 -4 243 -4 c 0
 110.40625 -4 72 120.124023438 72 252 c 0
 72 347 83 434 127 506 c 1
 203 506 l 1
 203 496 l 1
 152 429 138 356 138 252 c 0
 138 159.555664062 155.634765625 56 247 56 c 0
 338.8203125 56 369 148 369 239 c 2
 369 476 l 1
 435 476 l 1
 435 239 l 2
 435 117 483.349609375 56 565 56 c 3
 615.049804688 56 645 72 672 114 c 1xf4
 672 734 l 1
 738 734 l 1xf8
471 239 m 6xde
 471 138 523.349609375 56 605 56 c 4
 735.432617188 56 758 188.918945312 758 344 c 7
 758 544.002929688 660 678 496 678 c 7xde
 436 678 380 668 321 654 c 5
 308 654 l 5
 308 721 l 5xee
 377 735 452 738 503 738 c 7
 710 738 824 590.05078125 824 346 c 7
 824 140.998046875 768.619140625 -4 599 -4 c 4
 522 -4 468 43 441 117 c 5
 436 117 l 5
 413 39 341.254882812 -4 263 -4 c 4
 130.40625 -4 72 120.124023438 72 252 c 4
 72 347 83 434 127 506 c 5
 203 506 l 5
 203 496 l 5
 152 429 138 356 138 252 c 4
 138 159.555664062 175.634765625 56 267 56 c 4
 358.8203125 56 405 148 405 239 c 6
 405 476 l 5
 471 476 l 5
 471 239 l 6xde
177 531 m 17
 111 453 95 372 95 259 c 27
 95 147 146 26 255 26 c 3
 363.004201606 26 425 100 425 219 c 27
 425 307 425 416 425 504 c 1
 427 373 425 350 425 219 c 3
 425 102 503 26 600 26 c 3
 737 26 798 158.898334282 798 336 c 3
 798 513 724.311143613 708 504 708 c 3
 389 708 291 700 195 663 c 1025
EndSplineSet
Fore
SplineSet
471 239 m 2xde
 471 138 523.349609375 56 605 56 c 0
 735.432617188 56 748 192.918945312 748 358 c 7
 748 613.120117188 629.756835938 678 566 678 c 3xde
 536 678 500 675 451 667 c 1
 438 667 l 1
 438 730 l 1xee
 490 736 522 738 563 738 c 3
 665.584960938 738 814 660.374023438 814 360 c 7
 814 144.998046875 768.619140625 -4 599 -4 c 0
 522 -4 468 43 441 117 c 1
 436 117 l 1
 413 39 341.254882812 -4 263 -4 c 0
 130.40625 -4 72 120.124023438 72 252 c 0
 72 347 83 434 127 506 c 1
 203 506 l 1
 203 496 l 1
 152 429 138 356 138 252 c 0
 138 159.555664062 175.634765625 56 267 56 c 0
 358.8203125 56 405 148 405 239 c 2
 405 476 l 1
 471 476 l 1
 471 239 l 2xde
EndSplineSet
EndChar
StartChar: n
Encoding: 110 110 7
Width: 550
Flags: W
HStem: 278 66<350.382 432> 407 73<80 138.547> 450 60<136.131 345.09>
VStem: 82 66<-178 106.877> 404 66<0 278 290 390.119> 404 28<278 344>
LayerCount: 2
Back
SplineSet
172 92 m 3xca
 172 -98.0126953125 114 -142 23 -178 c 1
 10 -178 l 1
 10 -116 l 1
 88 -81 106 -35 106 92 c 3
 106 248.012695312 203 308.582677165 409 344 c 1
 422 344 l 1
 422 278 l 1
 239 253.894273128 172 200 172 92 c 3xca
422 278 m 1xca
 204 236 138 127 138 -3 c 2
 138 -178 l 1
 72 -178 l 1
 72 -1 l 2
 72 167 148 270 409 344 c 1
 422 344 l 1
 422 278 l 1xca
0 -116 m 1xcc
 120 -92.384765625 152 2 152 132 c 2
 152 342 l 1
 218 342 l 1
 218 132 l 2
 218 -36 168 -152 13 -178 c 1
 0 -178 l 1
 0 -116 l 1xcc
442 278 m 1xca
 224 236 158 127 158 -3 c 2
 158 -178 l 1
 92 -178 l 1
 92 -1 l 2
 92 167 168 270 429 344 c 1
 442 344 l 1
 442 278 l 1xca
0 -116 m 1xcc
 120 -92.384765625 172 2 172 132 c 2
 172 342 l 1
 238 342 l 1
 238 132 l 2
 238 -36 168 -152 13 -178 c 1
 0 -178 l 1
 0 -116 l 1xcc
82 446 m 1
 82 506 l 1
 158 506 213.997399373 505.298545692 261 433 c 2
 536 10 l 1
 536 0 l 1
 463 0 l 1
 205 403 l 2
 180 442 139 446 82 446 c 1
7 -168 m 1
 251 354 l 1
 308 327 l 1
 75 -178 l 1
 7 -178 l 1
 7 -168 l 1
82 446 m 1
 82 506 l 1
 158 506 213.997399373 505.298545692 261 433 c 2
 536 10 l 1
 536 0 l 1
 463 0 l 1
 205 403 l 2
 180 442 139 446 82 446 c 1
7 -140 m 1
 251 354 l 1
 308 327 l 1
 75 -150 l 1
 7 -150 l 1
 7 -140 l 1
222 259 m 25
 0 -248 l 1049
21 430 m 1
 66 430 125.87686309 428.490388607 165 368 c 2
 425 -34 l 1025
EndSplineSet
Fore
SplineSet
432 278 m 5x94
 214 236 148 127 148 -3 c 6
 148 -178 l 5
 82 -178 l 5
 82 -1 l 6
 82 167 158 270 419 344 c 5
 432 344 l 5
 432 278 l 5x94
404 300 m 3xb8
 404 410.624023438 340.224609375 450 254 450 c 3xb8
 207 450 160 442.697265625 90 407 c 1
 80 407 l 1
 80 480 l 1xd8
 152 503.198242188 204 510 260 510 c 3
 362.067382812 510 470 493.078125 470 290 c 3
 470 214 470 0 470 0 c 1
 404 0 l 1
 404 214 404 219 404 300 c 3xb8
EndSplineSet
Substitution2: "postalveolarize-1" ntilde
Substitution2: "palatalize-1" eng
EndChar
StartChar: o
Encoding: 111 111 4
Width: 520
Flags: W
HStem: -4 60<227.087 417.518> 29 61<395.981 453> 418 67<381.75 451> 450 60<223.585 418.908>
VStem: 72 66<149.777 356.678>
LayerCount: 2
Back
SplineSet
526 340 m 17
 419 405 359 430 258 430 c 3
 152 430 95 330 95 223 c 3
 95 108 158 26 268 26 c 3
 378 26 404 65 512 150 c 1025
EndSplineSet
Fore
SplineSet
453 29 m 1x48
 412 8 366 -4 311 -4 c 3
 187 -4 72 69 72 249 c 3
 72 422 183 510 305 510 c 3x98
 361 510 405 501 451 485 c 1
 451 418 l 1
 442 418 l 1x28
 396 438 360 450 303 450 c 3
 213 450 138 376 138 251 c 3
 138 119 220 56 313 56 c 3x98
 359 56 400 66 441 90 c 1
 453 90 l 1
 453 29 l 1x48
EndSplineSet
EndChar
StartChar: p
Encoding: 112 112 5
Width: 610
Flags: W
HStem: -4 60<163.212 377.93> 367 53<372 427.266> 678 60<172.023 361.602>
VStem: 96 66<60.4973 293.865 357.011 660.531> 395 66<507.188 645.988> 480 66<145.797 313.338>
LayerCount: 2
Back
SplineSet
84 -114 m 5xfa
 246 -46 445 61 445 248 c 4xfa
 445 304 407 359 345 359 c 4
 303 359 241 331 151 261 c 5
 152 339 l 5
 304 431 379 490 379 588 c 4
 379 643 341 678 275 678 c 7
 233.947265625 678 193.13671875 676.522460938 160 659 c 13
 160 0 l 5
 94 0 l 5
 92 707 l 21
 162 728 214.873046875 738 278 738 c 7
 383 738 445 682 445 592 c 4xfc
 445 524 402 456 352 419 c 5
 353 415 l 5
 455 412 511 324 511 251 c 4
 511 22 281 -93 98 -178 c 5
 84 -178 l 5
 84 -114 l 5xfa
74 -114 m 1xfa
 236 -46 435 61 435 248 c 0xfa
 435 304 397 353 335 353 c 0
 303 353 231 329 141 259 c 1
 142 330 l 1
 294 422 369 486 369 584 c 0
 369 639 333 678 280 678 c 0
 173 678 150 586 150 479 c 2
 150 0 l 1
 84 0 l 1
 84 475 l 2
 84 616 127 738 283 738 c 0
 373 738 435 678 435 588 c 0xfc
 435 520 392 450 342 413 c 1
 343 409 l 1
 445 406 501 324 501 251 c 0
 501 22 271 -93 88 -178 c 1
 74 -178 l 1
 74 -114 l 1xfa
111 0 m 1
 111 428 l 2
 111 498.655096486 116 658 284 658 c 3
 362 658 408 597 408 534 c 3
 408 444.372995141 296 362 177 272 c 1
 356 404 462 293.021484375 462 201 c 3
 462 18.9013671875 284 -96 44 -228 c 1033
EndSplineSet
Fore
SplineSet
162 283.17578125 m 1
 162 63 l 1
 200 58 234 56 249 56 c 0
 380 56 480 104 480 236 c 0
 480 311 430 367 354 367 c 0
 319.229492188 367 262.74609375 342.327148438 162 283.17578125 c 1
  Spiro
    162 283.175 v
    162 63 v
    198.077 58.9661 o
    228.248 56.7023 o
    249 56 o
    367.008 73.2974 o
    449.281 130.747 o
    480 236 o
    464.253 303.238 o
    420.388 349.737 o
    354 367 o
    311.208 358.43 o
    248.753 331.16 o
    0 0 z
  EndSpiro
162 357.010742188 m 1
 318.555664062 425.44921875 395 501.22265625 395 579 c 0
 395 639 361 678 277 678 c 0
 238.828125 678 203.208007812 670.83984375 162 651.69921875 c 1
 162 357.010742188 l 1
  Spiro
    162 357.01 v
    291.884 427.624 o
    369.434 502.164 o
    395 579 o
    383.099 631.289 o
    344.873 665.691 o
    277 678 o
    239.415 675.44 o
    201.608 667.013 o
    162 651.699 v
    0 0 z
  EndSpiro
96 699 m 1
 163 728 227 738 277 738 c 0
 389.071289062 738 461 703 461 583 c 0
 461 511 420 459 371 423 c 1
 372 420 l 1
 467 420 546 347 546 241 c 0
 546 68 420 -4 254 -4 c 0
 228 -4 156 1 96 8 c 1
 96 699 l 1
  Spiro
    96 699 v
    161.529 721.983 o
    222.799 734.341 o
    277 738 o
    374.431 724.51 o
    438.245 676.45 o
    461 583 o
    448.579 517.578 o
    416.071 464.434 o
    371 423 v
    372 420 v
    459.256 397.192 o
    522.046 334.439 o
    546 241 o
    507.26 100.702 o
    403.352 21.0229 o
    254 -4 o
    214.865 -2.44744 o
    157.79 1.78311 o
    96 8 v
    0 0 z
  EndSpiro
EndSplineSet
Substitution2: "aspirated-1" uniA751
EndChar
StartChar: q
Encoding: 113 113 21
Width: 590
Flags: W
HStem: -192 59<36 122.811> -4 21G<252.569 268.813> 486 20G<30 105.403> 672 62<531.006 590>
LayerCount: 2
Back
SplineSet
465 158 m 5
 380 63 335 26 233 26 c 7
 152 26 95 94.873046875 95 237 c 7
 95 426 217 480 330 480 c 7
 383 480 412 476 465 467 c 13
 465 0 l 1053
EndSplineSet
Fore
Refer: 30 269 N 1 0 0 1 0 0 2
EndChar
StartChar: r
Encoding: 114 114 14
Width: 560
Flags: W
HStem: -178 59<108 188.153> 0 21G<96 162> 206 62<214 265.859> 215 51<328 367.203> 450 60<197.705 356.479> 680 56<251.301 304>
VStem: 96 66<0 408 424 577.877> 365 66<342.765 440.268> 417 66<23.5815 168.81>
LayerCount: 2
Fore
SplineSet
304 680 m 1xce
 184 652 162 554 162 424 c 2
 162 0 l 1
 96 0 l 1
 96 426 l 2
 96 594 140 704 291 736 c 1
 304 736 l 1
 304 680 l 1xce
108 -119 m 1
 230.373046875 -88.7353515625 417 -39.8447265625 417 97 c 0
 417 176 361 215 281 215 c 0xde80
 261 215 242 212 225 206 c 1
 214 206 l 1
 214 268 l 1
 281 292 365 332 365 397 c 3
 365 434 341 450 301 450 c 3
 265 450 213.864257812 441.576171875 159 408 c 1
 135 459 l 1
 194 497 255 510 301 510 c 3
 370 510 431 484 431 407 c 3xef
 431 353 394 312 327 270 c 1
 328 266 l 1
 415 262 483 188 483 97 c 0xde80
 483 -76.619140625 272.029296875 -141.935546875 122 -178 c 1
 108 -178 l 25
 108 -119 l 1
EndSplineSet
Substitution2: "voiceless-1" rcaron
EndChar
StartChar: s
Encoding: 115 115 24
Width: 530
Flags: W
HStem: 0 21G<82 148 383 449> 145 62<131 191.35> 450 60<191.249 330.437>
VStem: 82 66<0 145 207 403.112> 131 17<145 207> 354 66<314.592 425.152> 383 70<0 149.077>
LayerCount: 2
Back
SplineSet
68 -119 m 1xb4
 190.373046875 -88.7353515625 372 -39.8447265625 372 97 c 0
 372 176 321 215 241 215 c 0xb4
 202 215 174 202 132 182 c 1
 121 182 l 1
 121 244 l 1
 228 284 325 341.7734375 325 397 c 3
 325 434 294 450 254 450 c 3
 218 450 168.864257812 441.576171875 114 403 c 1
 93 403 l 1
 93 466 l 1
 152 498 208 510 254 510 c 3
 323 510 391 484 391 407 c 3xd8
 391 353 354 312 287 270 c 1
 288 266 l 1
 375 262 438 188 438 97 c 0
 438 -76.619140625 232.029296875 -141.935546875 82 -178 c 1
 68 -178 l 25
 68 -119 l 1xb4
EndSplineSet
Fore
SplineSet
267 178 m 3xe2
 228 178 184 165 142 145 c 1
 131 145 l 1
 131 207 l 1xea
 268 249 354 304.846679688 354 368 c 3
 354 425 314 450 260 450 c 3
 187.859375 450 148 404 148 302 c 2
 148 0 l 1
 82 0 l 1
 82 309 l 2
 82 436 146.98046875 510 267 510 c 3
 361 510 420 460.05859375 420 378 c 3xf4
 420 296.936523438 354 253 317 235 c 1
 318 231 l 1
 395 227 453 169 453 76 c 3
 453 43.365234375 451 16 447 0 c 1
 383 0 l 1
 383 16 l 1
 386 35 387 58.6953125 387 80 c 3
 387 144 348 178 267 178 c 3xe2
EndSplineSet
EndChar
StartChar: t
Encoding: 116 116 8
Width: 590
Flags: W
HStem: 0 21G<92 158 432 498> 442 60<158 432>
VStem: 92 66<0 442> 432 66<0 442>
LayerCount: 2
Fore
SplineSet
158 442 m 5
 158 0 l 5
 92 0 l 5
 92 502 l 5
 498 502 l 5
 498 0 l 5
 432 0 l 5
 432 442 l 5
 158 442 l 5
EndSplineSet
Substitution2: "aspirated-1" uni021B
EndChar
StartChar: u
Encoding: 117 117 19
Width: 560
Flags: W
HStem: -178 21G<248 314> 486 20G<29 104.996 456.004 532>
VStem: 248 66<-178 10>
LayerCount: 2
Back
SplineSet
28 552 m 29
 272 26 l 5
 272 -178 l 1053
EndSplineSet
Fore
SplineSet
313 10 m 1
 250 28 l 1
 465 506 l 1
 532 506 l 1
 532 490 l 1
 313 10 l 1
314 -178 m 1
 248 -178 l 1
 248 10 l 1
 29 490 l 1
 29 506 l 1
 96 506 l 1
 311 28 l 1
 314 16 l 1
 314 -178 l 1
EndSplineSet
EndChar
StartChar: v
Encoding: 118 118 25
Width: 870
Flags: W
HStem: -178 58<588 645.77> -4 60<193.213 322.897 503.213 634.879> 486 20G<90 156 400 466 712 778>
VStem: 90 66<96.9633 506> 400 66<151.39 506> 712 66<-50.0994 96 131 506>
LayerCount: 2
Back
SplineSet
712 506 m 1
 778 506 l 25
 778 -178 l 1
 712 -178 l 25
 712 506 l 1
712 162 m 2
 712 506 l 1
 778 506 l 1
 778 162 l 2
 778 78 798 56 837 56 c 1
 846 56 l 1
 846 49 847 16 847 6 c 3
 847 -104.004882812 780 -178 652 -178 c 1
 639 -178 l 1
 639 -116 l 1
 760 -113 781 -47 781 0 c 1
 738 20 712 34 712 162 c 2
EndSplineSet
Fore
SplineSet
712 506 m 1
 778 506 l 1
 778 96 l 2
 778 -17 765 -140 606 -178 c 1
 588 -178 l 1
 588 -120 l 1
 703 -97 712 -20 712 96 c 2
 712 506 l 1
466 506 m 1
 466 377 466 303 466 174 c 0
 466 119 498 56 555 56 c 0
 613 56 669 89 718 159 c 1
 753 131 l 1
 712 59 630 -4 550 -4 c 0
 450 -4 400 76 400 174 c 0
 400 303 400 377 400 506 c 1
 466 506 l 1
156 506 m 1
 156 377 156 303 156 174 c 0
 156 119 188 56 245 56 c 0
 302 56 359 89 408 159 c 1
 443 131 l 1
 402 59 320 -4 240 -4 c 0
 140 -4 90 76 90 174 c 0
 90 303 90 377 90 506 c 1
 156 506 l 1
EndSplineSet
EndChar
StartChar: w
Encoding: 119 119 37
Width: 770
Flags: W
HStem: -4 60<185.514 297.7> 450 60<218.39 371.124> 642 67<109 202.619> 678 60<170.488 455.943>
VStem: 72 66<113.121 349.337> 372 66<153.928 441.379> 627 66<189.949 493.914>
LayerCount: 2
Back
SplineSet
388 97 m 1xde
 382 97 l 1
 342 26 293.740234375 -4 229 -4 c 3
 150 -4 72 68 72 231 c 3
 72 427 190.673828125 510 284 510 c 3
 348.125 510 396 494 438 472 c 1
 438 170 l 2
 438 94 475.750976562 56 508 56 c 3
 561 56 667 82 667 336 c 3
 667 618 483 678 367 678 c 3xde
 307 678 251 668 192 650 c 1
 179 650 l 1
 179 717 l 1xee
 248 735 323 738 374 738 c 3
 519 738 733 676 733 347 c 3
 733 47 586 -4 505 -4 c 3
 458 -4 407 36 388 97 c 1xde
372 422 m 1
 348 442 312 450 278 450 c 3
 204.08203125 450 138 377 138 236 c 3
 138 112 193 56 235 56 c 3
 292 56 338 96 372 214 c 1
 372 422 l 1
EndSplineSet
Fore
SplineSet
400 114 m 1xde
 394 114 l 1
 354 36 294 -4 229 -4 c 3
 150 -4 72 58 72 221 c 3
 72 417 191 510 289 510 c 3
 353 510 395 499 438 479 c 1
 438 258 l 2
 438 138 477 75 514 56 c 1
 569 88 627 176.97265625 627 344 c 3
 627 626 462 678 327 678 c 3xde
 247 678 181 660 122 642 c 1
 109 642 l 1
 109 709 l 1xee
 178 727 263 738 334 738 c 3
 489 738 693 684 693 355 c 3
 693 153.840820312 613 42 545 0 c 1
 481 0 l 1
 444 18 414.016601562 70 400 114 c 1xde
372 429 m 1
 348 447 322 450 283 450 c 3
 206 450 138 367 138 226 c 3
 138 102 193 56 235 56 c 3
 292 56 338 96 372 214 c 1
 372 429 l 1
EndSplineSet
Substitution2: "voiceless-1" uni01A3
EndChar
StartChar: x
Encoding: 120 120 27
Width: 580
Flags: W
HStem: -178 64<84 130.344> 0 21G<94 160> 353 56<353 405.458> 678 60<216.012 348.747>
VStem: 94 66<0 259 330 609.487> 379 66<500.363 647.19> 445 66<151.333 315.999>
LayerCount: 2
Back
SplineSet
123 0 m 5
 123 478 l 6
 123 548.655273438 128 708 296 708 c 7
 374 708 420 647 420 584 c 7
 420 494.373046875 308 412 189 322 c 5
 394 318 452 218.021484375 452 126 c 7
 452 -56.0986328125 296 -142 56 -178 c 1029
EndSplineSet
Fore
Refer: 31 499 N 1 0 0 1 0 0 2
EndChar
StartChar: y
Encoding: 121 121 26
Width: 570
Flags: W
HStem: -4 60<271.523 402 468 559> 30 30<402 468> 486 20G<88 154 402 468>
VStem: 88 66<172.741 506> 402 66<30 506>
LayerCount: 2
Back
SplineSet
111 508 m 5
 111 203 l 6
 111 70 219 26 326 26 c 7
 418 26 456 27 548 30 c 1029
EndSplineSet
Fore
SplineSet
402 506 m 5x78
 468 506 l 29
 468 30 l 5
 402 30 l 29
 402 506 l 5x78
373 -4 m 3xb8
 221.947265625 -4 88 67 88 263 c 2
 88 506 l 1
 154 506 l 1
 154 271 l 2
 154 117 269 56 373 56 c 3xb8
 444 56 470 57 554 60 c 9
 559 60 l 1x78
 559 0 l 1
 475 -3 432 -4 373 -4 c 3xb8
EndSplineSet
EndChar
StartChar: z
Encoding: 122 122 13
Width: 600
Flags: W
HStem: -4 60<163.924 413.11> 450 60<448.028 509> 714 20G<96 162>
VStem: 96 66<68.152 734> 366 68<324.254 435.714> 461 66<98.8663 218.213>
LayerCount: 2
Fore
SplineSet
509 510 m 1
 509 450 l 1
 452 450 434 421.947265625 434 380 c 3
 434 323.991210938 527 259.015625 527 162 c 3
 527 57.9228515625 440.125976562 -4 292 -4 c 3
 229 -4 166 4 96 18 c 1
 96 734 l 1
 162 734 l 1
 162 72.0712890625 l 1
 225.455078125 59.0673828125 263 56 302 56 c 3
 388.874023438 56 461 81.7568359375 461 156 c 3
 461 224.1171875 366 285.994140625 366 376 c 3
 366 459.771484375 424.342773438 510 509 510 c 1
EndSplineSet
EndChar
StartChar: ccedilla
Encoding: 231 231 60
Width: 590
Flags: W
HStem: -178 58<288 334.359> 0 21G<92 161.691> 486 20G<92 158 430.206 498>
VStem: 92 66<118 506> 432 66<-18.4011 388>
LayerCount: 2
Fore
SplineSet
498 96 m 6
 498 -17 465 -119 306 -178 c 5
 288 -178 l 5
 288 -120 l 5
 385 -87 432 -20 432 96 c 6
 432 388 l 1
 147 0 l 1
 92 0 l 1
 92 506 l 25
 158 506 l 17
 158 419 158 118 158 118 c 1
 445 506 l 1
 498 506 l 1
 498 96 l 6
EndSplineSet
EndChar
StartChar: ecircumflex
Encoding: 234 234 34
Width: 1024
LigCaretCntFixed: 1
LayerCount: 2
Back
SplineSet
422 132 m 2
 422 506 l 1
 488 506 l 1
 488 132 l 2
 488 -95 371 -178 133 -178 c 1
 111 -177 l 1
 111 -118 l 1
 333 -118 422 -84.6716658709 422 132 c 2
EndSplineSet
EndChar
StartChar: eth
Encoding: 240 240 48
Width: 610
Flags: W
HStem: -178 58<308 354.359> 486 20G<448.958 518> 648 83<390.16 448> 674 57<105 350>
VStem: 88 67.165<122 397.178> 452 66<-18.4011 383>
LayerCount: 2
Back
SplineSet
518 -152 m 17xf6
 452 -152 l 9
 452 383 l 1
 147 0 l 1
 93 0 l 1
 91.447265625 46.830078125 88 128.979492188 88 199 c 3
 88 496 184 596 351 670 c 1
 350 674 l 1xee
 105 668 l 1
 105 728 l 1
 448 731 l 1
 448 648 l 1
 228.93359375 581.91796875 155.165039062 450.780273438 155.165039062 225 c 3
 155.165039062 198.36328125 156 147.018554688 157 122 c 1
 465 506 l 1
 518 506 l 1
 518 -152 l 17xf6
-72 708 m 1
 49 708 l 25
 49 25 l 1
 393 480 l 1
 393 96 l 2
 393 -30.52734375 318 -126 204 -152 c 1025
EndSplineSet
Fore
SplineSet
518 96 m 6xec
 518 -17 485 -119 326 -178 c 5
 308 -178 l 5
 308 -120 l 5
 405 -87 452 -20 452 96 c 6
 452 383 l 1
 147 0 l 1
 93 0 l 1
 91.447265625 46.830078125 88 128.979492188 88 199 c 3
 88 496 184 596 351 670 c 1
 350 674 l 1xdc
 105 668 l 1
 105 728 l 1
 448 731 l 1
 448 648 l 1
 228.93359375 581.91796875 155.165039062 450.780273438 155.165039062 225 c 3
 155.165039062 198.36328125 156 147.018554688 157 122 c 1
 465 506 l 1
 518 506 l 1
 518 96 l 6xec
EndSplineSet
LCarets2: 1 610
EndChar
StartChar: ntilde
Encoding: 241 241 45
Width: 720
Flags: W
HStem: -4 63<437.855 522.204> 450 60<196.81 328.652> 670 64<683.671 720>
VStem: 88 66<0 400.226> 362 66<241.055 414.303> 552 66<95.8906 604.111>
LayerCount: 2
Back
SplineSet
121 0 m 29
 121 234 l 22
 121 358 203 480 329 480 c 7
 431 480 505 414 505 312 c 31
 505 212 455 150 379 106 c 1029
EndSplineSet
Fore
SplineSet
533 0 m 1
 486 -4 l 1
 451 -4 369.3125 44.4990234375 246 134 c 2
 184 179 l 1
 184 241 l 1
 205 241 l 1
 286 182 l 2
 402.805664062 96.9189453125 462 59 500 59 c 1
 543 87.87890625 552 154 552 275 c 2
 552 445 l 2
 552 613 576 678 707 734 c 1
 720 734 l 1
 720 670 l 1
 618 626 618 564 618 434 c 2
 618 278 l 2
 618 96 590 46 533 0 c 1
154 0 m 1
 88 0 l 1
 88 269 l 2
 88 439 156 510 266 510 c 3
 381 510 428 441 428 341 c 3
 428 236 381 178 304 133 c 1
 286 148 l 1
 268 173 l 1
 327 208 362 252 362 337 c 3
 362 400 335 450 262 450 c 3
 168 450 154 364 154 262 c 2
 154 0 l 1
EndSplineSet
LCarets2: 1 720
Ligature2: "ligature-digraph-1" n h
EndChar
StartChar: ocircumflex
Encoding: 244 244 50
Width: 610
Flags: W
HStem: -4 60<225.907 387.084> 450 60<222.515 383.717>
VStem: 72 66<146.581 356.678> 472 66<149.322 359.419>
LayerCount: 2
Fore
SplineSet
309 -4 m 3
 186 -4 72 69 72 249 c 3
 72 422 179 510 300 510 c 3
 424 510 538 437 538 257 c 3
 538 84 431 -4 309 -4 c 3
298 450 m 3
 209 450 138 376 138 251 c 3
 138 119 219 56 311 56 c 3
 401 56 472 130 472 255 c 3
 472 387 391 450 298 450 c 3
EndSplineSet
EndChar
StartChar: oslash
Encoding: 248 248 22
Width: 560
Flags: W
HStem: -4 60<188.751 320.211> 450 60<226.635 401.015>
VStem: 72 66<115.782 343.574> 402 66<0 85 139.549 442.676>
LayerCount: 2
Fore
SplineSet
247 -4 m 4
 153 -4 72 58 72 221 c 0
 72 417 190 510 309 510 c 0
 365 510 409 501 468 488 c 1
 468 0 l 1
 402 0 l 1
 402 85 l 1
 349 24 308 -4 247 -4 c 4
402 438 m 1
 366 446 340 450 302 450 c 0
 209 450 138 367 138 226 c 0
 138 102 191 56 254 56 c 4
 310 56 341 88 402 167 c 1
 402 438 l 1
EndSplineSet
EndChar
StartChar: thorn
Encoding: 254 254 10
Width: 610
Flags: W
HStem: -4 60<159.212 371.968> 367 53<374 418.026> 619 21G<128 172> 678 60<197.236 374.097>
VStem: 92 66<60.4973 341> 411 66<513.786 641.045> 468 66<142.711 316.626>
LayerCount: 2
Back
SplineSet
26 348 m 5
 26 -16 l 1053
0 632 m 5
 95 682 181 708 250 708 c 7
 340 708 422 679 422 589 c 7
 422 490.004882812 324 430 204 364 c 5
 324 430 466 360 466 236 c 7
 466 80 337 26 200 26 c 7
 161 26 -24 42 -76 60 c 1029
EndSplineSet
Fore
SplineSet
128 692 m 1xfc
 199 730.354492188 260 738 300 738 c 0
 382 738 477 709 477 583 c 0xfc
 477 507 427 457 373 423 c 1
 374 420 l 1
 463 420 534 347 534 241 c 0
 534 68 416 -4 250 -4 c 0
 224 -4 152 1 92 8 c 9
 92 68 l 1
 92 341 l 1
 158 341 l 1
 158 63 l 1
 196 58 230 56 245 56 c 0
 376 56 468 104 468 236 c 0xfa
 468 311 426 367 340 367 c 0
 308 367 282 359 252 341 c 1
 241 341 l 1
 240 401 l 1
 325 447 411 498 411 579 c 0
 411 639 366 678 300 678 c 0
 258 678 206 670.852539062 138 619 c 1
 128 619 l 1
 128 692 l 1xfc
EndSplineSet
LCarets2: 1 610
EndChar
StartChar: amacron
Encoding: 257 257 16
Width: 570
Flags: W
HStem: -4 21G<242.976 323> 486 20G<30 104.926> 654.535 65.7607<121 255.427> 678 60<137.275 381.916>
VStem: 452 67<398.068 605.997>
LayerCount: 2
Back
SplineSet
421 720.295898438 m 5xe8
 497.25 733.34375 552 738 601 738 c 7
 731.5078125 738 819 657.33203125 819 526 c 4
 819 452 796.5703125 393.762695312 767 333 c 6
 603 -4 l 5
 542 -4 l 5
 310 488 l 5
 310 506 l 5
 376 506 l 5
 573 87 l 5
 705 355 l 6
 733.26171875 412.380859375 752 462 752 521 c 4
 752 611.717773438 694.590820312 678 601 678 c 7xd8
 546 678 498.66796875 675.192382812 433 654.53515625 c 5
 421 654.53515625 l 5
 421 720.295898438 l 5xe8
441.254882812 239 m 5
 323 -4 l 5
 262 -4 l 5
 30 488 l 5
 30 506 l 5
 96 506 l 5
 293 87 l 5
 402.34375 309 l 5
 441.254882812 239 l 5
EndSplineSet
Fore
SplineSet
121 720.295898438 m 1xe8
 197.25 733.34375 252 738 301 738 c 3
 431.5078125 738 519 657.33203125 519 526 c 0
 519 452 488.4 346.8 446 262 c 2
 313 -4 l 1
 252 -4 l 1
 30 488 l 1
 30 506 l 1
 96 506 l 1
 283 87 l 1
 384 284 l 2
 424.449459294 362.896470108 452 462 452 521 c 0
 452 611.717773438 394.590820312 678 301 678 c 3xd8
 246 678 198.66796875 675.192382812 133 654.53515625 c 1
 121 654.53515625 l 1
 121 720.295898438 l 1xe8
EndSplineSet
LCarets2: 1 448
EndChar
StartChar: cacute
Encoding: 263 263 58
Width: 580
Flags: W
HStem: -4 60<150.486 274.201> 267 20G<397 467.226> 497 20G<317.5 440.462> 631 73<110 166.066> 674 60<164.838 365.09>
VStem: 52 66<88.1432 235.032> 424 66<0 452 514 614.119>
LayerCount: 2
Back
SplineSet
138 162 m 7xcc
 138 107 179 56 247 56 c 4
 318 56 390 106 446 176 c 5
 482 145 l 5
 436 73 349 -4 242 -4 c 4
 132 -4 72 64 72 162 c 7
 72 286.016601562 179.913085938 336.327148438 287.903320312 336.327148438 c 7
 360.38671875 336.327148438 399 333 454 322 c 5
 454 257 l 5
 392 272 343.856445312 275.3828125 288.926757812 275.3828125 c 7
 201.877929688 275.3828125 138 243.215820312 138 162 c 7xcc
424 300 m 7
 424 410.624023438 360.224609375 450 274 450 c 7xdc
 227 450 182 439.697265625 120 407 c 5
 110 407 l 5
 110 480 l 5xec
 173 499.198242188 224 510 280 510 c 7xdc
 382.067382812 510 490 493.078125 490 290 c 7
 490 214 490 0 490 0 c 5
 424 0 l 5
 424 214 424 219 424 300 c 7
138 235 m 3xcc
 138 124.234375 179 56 247 56 c 0
 318 56 390 106 446 176 c 1
 482 145 l 1
 436 73 349 -4 242 -4 c 0
 132 -4 72 68.8076171875 72 235 c 3
 72 414.120117188 182.451171875 510 300.903320312 510 c 0
 373.38671875 510 402 495 454 480.672851562 c 1
 454 410.672851562 l 1
 398 433 356.856445312 449.055664062 301.926757812 449.055664062 c 0
 216.708007812 449.055664062 138 373.057617188 138 235 c 3xcc
424 528 m 3
 424 638.624023438 360.224609375 678 274 678 c 3xdc
 227 678 182 667.697265625 120 635 c 1
 110 635 l 1
 110 708 l 1xec
 173 727.198242188 224 738 280 738 c 3xdc
 382.067382812 738 490 721.078125 490 518 c 3
 490 442 490 0 490 0 c 1
 424 0 l 1
 424 214 424 447 424 528 c 3
138 171 m 3xcc
 138 116 179 56 247 56 c 0
 318 56 390 106 446 176 c 1
 482 145 l 1
 436 73 349 -4 242 -4 c 0
 132 -4 72 73 72 171 c 3
 72 269 132.451171875 346.327148438 250.903320312 346.327148438 c 0
 323.38671875 346.327148438 380 334 454 297 c 1
 454 227 l 1
 376 272 306.856445312 285.3828125 251.926757812 285.3828125 c 0
 166.708007812 285.3828125 138 223.037109375 138 171 c 3xcc
424 300 m 3
 424 410.624023438 360.224609375 450 274 450 c 3xdc
 227 450 182 439.697265625 120 407 c 1
 110 407 l 1
 110 480 l 1xec
 173 499.198242188 224 510 280 510 c 3xdc
 382.067382812 510 490 493.078125 490 290 c 3
 490 214 490 0 490 0 c 1
 424 0 l 1
 424 214 424 219 424 300 c 3
EndSplineSet
Fore
SplineSet
118 142 m 3xe6
 118 108.265625 149 56 207 56 c 0
 278 56 350 128 444 287 c 1
 480 256 l 1
 394 94 309 -4 202 -4 c 0
 102 -4 52 60.9755859375 52 142 c 3
 52 315.01171875 201 377 434 517 c 1
 455 452 l 1
 220 317 118 281.100585938 118 142 c 3xe6
424 524 m 3
 424 634.624023438 360.224609375 674 274 674 c 3xee
 227 674 182 663.697265625 120 631 c 1
 110 631 l 1
 110 704 l 1xf6
 173 723.198242188 224 734 280 734 c 3xee
 382.067382812 734 490 717.078125 490 514 c 3
 490 438 490 0 490 0 c 1
 424 0 l 1
 424 214 424 443 424 524 c 3
EndSplineSet
LCarets2: 1 580
Ligature2: "ligature-digraph-1" c uni02BC
EndChar
StartChar: ccircumflex
Encoding: 265 265 57
Width: 610
Flags: W
HStem: -4 60<159.352 368.551> 404 60<217.633 398.959> 504 20G<425.5 468.5> 675 61<217.9 450.382>
VStem: 92 66<68.4192 341> 114 66<500.488 639.188> 452 66<149.084 464 524 669.934>
LayerCount: 2
Back
SplineSet
92 529 m 7
 92 672 195 736 313 736 c 4
 405 736 452 734 518 727 c 5
 518 727 518 473 518 342 c 4
 518 234 498 103 360 12 c 5
 356 0 l 5
 277 0 l 5
 92 168 l 5
 92 244 l 5
 110 244 l 5
 310 64 l 5
 428 103 451 248 451 337 c 4
 451 428 452 665 452 665 c 5
 452 668 l 5
 399 673 365 675 314 675 c 4
 217 675 158 627 158 529 c 7
 158 474 204.958007812 442 253 442 c 7
 327.108398438 442 374 456 459 514 c 5
 460 503 508 476 476 454 c 5
 400 404 321.94140625 382 245 382 c 7
 162.90234375 382 92 435.095703125 92 529 c 7
92 519 m 3
 92 662 195 736 313 736 c 0
 405 736 452 734 518 727 c 1
 518 727 518 473 518 342 c 0
 518 234 498 103 360 12 c 1
 356 0 l 1
 277 0 l 1
 92 168 l 1
 92 244 l 1
 110 244 l 1
 310 64 l 1
 428 103 451 248 451 337 c 0
 451 428 452 665 452 665 c 1
 452 668 l 1
 399 673 365 675 314 675 c 0
 217 675 158 617 158 519 c 3
 158 485 161 460 179 438 c 1
 298 451 374 472 459 514 c 1
 460 503 508 476 476 454 c 1
 392 416 298 388 161 368 c 1
 135 368 l 1
 108 400 92 473 92 519 c 3
271 -4 m 3
 224 -4 154 -1 94 13 c 9
 94 70 l 1
 94 224 l 1
 160 224 l 1
 160 65 l 1
 198 58 230 56 274 56 c 3
 404 56 452 228 452 337 c 2
 452 665 l 1
 452 668 l 1
 399 673 365 675 314 675 c 0
 217 675 158 617 158 519 c 3
 158 485 161 460 179 438 c 1
 298 451 374 472 459 514 c 1
 460 503 508 476 476 454 c 1
 392 416 298 388 161 368 c 1
 135 368 l 1
 108 400 92 473 92 519 c 3
 92 662 195 736 313 736 c 0
 405 736 452 734 518 727 c 1
 518 342 l 2
 518 158 440 -4 271 -4 c 3
126 342 m 1
 112.184570312 367.077148438 82 440.901294708 82 522 c 3
 82 665 189.913085938 736.327148438 297.903320312 736.327148438 c 0
 389.560557823 736.327148438 444.836748838 729.063022298 518 714 c 1
 518 714 518 473.33203125 518 342 c 0
 518 233.8125 498 103 360 12 c 1
 356 0 l 1
 277 0 l 1
 92 188 l 1
 92 264 l 1
 110 264 l 1
 306 61 l 1
 424 99.5302734375 451 248.174804688 451 337 c 0
 451 427.717773438 452 657 452 657 c 1
 452.225803759 659.747279064 l 1
 395.791005574 672.42037077 350.330303111 675.3828125 298.926757812 675.3828125 c 0
 211.877929688 675.3828125 148 620.127468122 148 522 c 3
 148 459.79871384 164 422 176.649414062 402 c 1
 269 403 393 445 464 471 c 1
 463.021484375 460.05859375 506.639648438 431.517578125 471 415 c 1
 398 388 307 351 183 342 c 1
 126 342 l 1
EndSplineSet
Fore
SplineSet
262 -4 m 0xf6
 202 -4 152 4 92 25 c 9
 92 85 l 1
 92 341 l 1
 158 341 l 1
 158 75 l 1xfa
 196 62 229 56 257 56 c 0
 375 56 452 93 452 292 c 2
 452 292 452 665 452 665 c 1
 452 668 l 1
 399 673 365 675 314 675 c 0
 217 675 180 641.9296875 180 561 c 3
 180 506 226.958007813 464 275 464 c 3
 326.351728306 464 383 466 468 524 c 1
 469 513 507 486 475 464 c 1
 399 414 354 404 267 404 c 3
 184.90234375 404 114 467.095703125 114 561 c 3
 114 682.00390625 195 736 313 736 c 0
 405 736 452 734 518 727 c 1
 518 297 l 2
 518 53 415 -4 262 -4 c 0xf6
EndSplineSet
LCarets2: 1 610
Ligature2: "ligature-digraph-1" q h
EndChar
StartChar: ccaron
Encoding: 269 269 30
Width: 590
Flags: W
HStem: -192 59<36 122.811> -4 21G<252.569 268.813> 486 20G<30 105.403> 672 62<531.006 590>
LayerCount: 2
Back
SplineSet
591 708 m 5
 509 694 451.246817635 641.059229457 403 480 c 6
 267 26 l 6
 233.082951935 -87.2230869232 131 -136 35 -162 c 1029
EndSplineSet
Fore
SplineSet
293 87 m 1
 262 -4 l 1
 30 488 l 1
 30 506 l 1
 96 506 l 1
 293 87 l 1
567 734 m 1
 590 734 l 1
 590 672 l 1
 492.950195312 658.626953125 477.75 581.166015625 445 472 c 2
 309 18 l 2
 261.038085938 -142.108398438 187 -172 54 -192 c 1
 36 -192 l 1
 36 -133 l 1
 146 -119 210.780273438 -80.2333984375 245 34 c 2
 381 488 l 2
 419.682617188 617.129882812 446.171875 712.1953125 567 734 c 1
EndSplineSet
LCarets2: 1 590
EndChar
StartChar: emacron
Encoding: 275 275 33
Width: 870
Flags: W
HStem: -4 60<193.213 322.897 503.213 634.879> 486 20G<90 156 400 466 712 778>
VStem: 90 66<96.9633 506> 400 66<151.39 506> 712 66<0 506>
LayerCount: 2
Fore
SplineSet
712 506 m 1
 778 506 l 25
 778 0 l 1
 712 0 l 25
 712 506 l 1
466 506 m 1
 466 377 466 303 466 174 c 0
 466 119 498 56 555 56 c 0
 613 56 669 89 718 159 c 1
 753 131 l 1
 712 59 630 -4 550 -4 c 0
 450 -4 400 76 400 174 c 0
 400 303 400 377 400 506 c 1
 466 506 l 1
156 506 m 1
 156 377 156 303 156 174 c 0
 156 119 188 56 245 56 c 0
 302 56 359 89 408 159 c 1
 443 131 l 1
 402 59 320 -4 240 -4 c 0
 140 -4 90 76 90 174 c 0
 90 303 90 377 90 506 c 1
 156 506 l 1
EndSplineSet
LCarets2: 1 870
EndChar
StartChar: imacron
Encoding: 299 299 35
Width: 590
Flags: W
HStem: -178 62<294 335.722> 450 60<274.692 400.035>
VStem: 92 66<0 506> 436 66<-16.789 409.029>
LayerCount: 2
Back
SplineSet
436 -178 m 17
 436 -111.333007812 436 255.333007812 436 322 c 0
 436 377 415 450 347 450 c 0
 276 450 218.896522299 399 156.165039062 276.251953125 c 1
 116.834960938 297.748046875 l 1
 177.308742263 429 245 510 352 510 c 0
 462 510 502 420 502 322 c 0
 502 255.333007812 502 -111.333007812 502 -178 c 9
 436 -178 l 17
500 0 m 1
 434 0 l 1
 434 332 l 2
 434 387 413 450 345 450 c 3
 274 450 211 403 155 333 c 1
 120 361 l 1
 166 433 243 510 350 510 c 3
 460 510 500 430 500 332 c 2
 500 0 l 1
EndSplineSet
Fore
SplineSet
294 -116 m 1
 424 -59 436 2 436 132 c 0
 436 198.666666667 436 255.333007812 436 322 c 0
 436 377 415 450 347 450 c 0
 276 450 218.896522299 399 156.165039062 276.251953125 c 1
 116.834960938 297.748046875 l 1
 177.308742263 429 245 510 352 510 c 0
 462 510 502 420 502 322 c 0
 502 255.333007812 502 198.666666667 502 132 c 0
 502 -36 468 -110 307 -178 c 1
 294 -178 l 1
 294 -116 l 1
158 0 m 1
 92 0 l 25
 92 506 l 1
 158 506 l 25
 158 0 l 1
EndSplineSet
LCarets2: 1 590
EndChar
StartChar: uni0137
Encoding: 311 311 52
Width: 770
Flags: W
HStem: -182 60<482.97 602.664> -4 60<183.311 304.396> 486 20G<90 156 392 458> 670 64<733.671 770>
VStem: 90 66<85.5355 506> 392 66<-94.5565 145 173 506> 603 65<-117.509 604.111>
LayerCount: 2
Fore
SplineSet
527 -182 m 0
 441 -182 392 -114 392 -35 c 0
 392 506 l 1
 458 506 l 25
 458 296 458 97 458 -32 c 0
 458 -75 485 -122 530 -122 c 0
 562 -122 589 -120 603 -106 c 9
 602 445 l 0
 602 613 626 678 757 734 c 1
 770 734 l 1
 770 670 l 1
 668 626 668 564 668 434 c 0
 668 -150 l 17
 634 -170 593 -182 527 -182 c 0
90 506 m 1
 156 506 l 1
 156 174 l 2
 156 119 171.584960938 56 234.825195312 56 c 3
 300.85546875 56 339 103 395 173 c 1
 430 145 l 1
 384 73 329.684570312 -4 230.174804688 -4 c 3
 127.875 -4 90 76 90 174 c 2
 90 506 l 1
EndSplineSet
LCarets2: 1 770
Ligature2: "ligature-digraph-1" k h
EndChar
StartChar: uni013C
Encoding: 316 316 65
Width: 550
Flags: W
HStem: 0 21G<81.5 152 424.99 508> 714 20G<70 153.97 414 491>
VStem: 80 72<0 161.949> 414 70<660.988 734> 440 66<520.778 711.898>
LayerCount: 2
Fore
SplineSet
506 626 m 0xe8
 506 497.318359375 434.014648438 412.840820312 345 332 c 0
 255 250.263671875 146 174.546875 146 77 c 0
 146 54.4697265625 148 33.3466796875 152 9 c 1
 152 0 l 1
 83 0 l 1
 80 25.779296875 80 48.8818359375 80 80 c 0
 80 203.090820312 214 297.209960938 301 376 c 0
 391.541015625 457.99609375 440 520.6875 440 631 c 0xe8
 440 658 428 698 414 718 c 1
 414 734 l 1
 484 734 l 1xf0
 498 709 506 664 506 626 c 0xe8
70 493 m 1
 70 506 l 1
 139 506 l 1
 508 13 l 1
 508 0 l 1
 440 0 l 1
 70 493 l 1
EndSplineSet
LCarets2: 1 550
Ligature2: "ligature-digraph-1" l h
EndChar
StartChar: lslash
Encoding: 322 322 49
Width: 1024
LayerCount: 2
Back
SplineSet
455 664 m 4
 455 526.318359375 363.014214241 444.84058199 274 364 c 4
 184 282.264150943 135 194.546875 135 87 c 4
 135 64.4697265625 136 34.3466796875 138 9 c 5
 138 0 l 5
 73 0 l 5
 70 26.7796610169 69 61.8818359375 69 93 c 4
 69 226.090820312 143 329.210355987 230 408 c 4
 320.540698693 489.996200215 389 549.6875 389 664 c 4
 389 683 388 702 385 722 c 5
 385 732 l 5
 452 732 l 5
 455 707 455 687 455 664 c 4
59 721 m 5
 59 734 l 5
 128 734 l 5
 497 13 l 5
 497 0 l 5
 429 0 l 5
 59 721 l 5
356 751 m 17
 415.201183432 406 -14 293 48 0 c 1033
12 751 m 25
 394 -15 l 1049
EndSplineSet
LCarets2: 1 550
EndChar
StartChar: eng
Encoding: 331 331 44
Width: 740
Flags: W
HStem: -4 60<436.646 519.419> 450 60<196.81 328.652> 650 67<119 235.019> 678 60<151.959 439.64>
VStem: 88 66<0 400.226> 362 66<241.055 414.303> 602 66<195.616 504.188>
LayerCount: 2
Back
SplineSet
496 -4 m 7
 428 -4 353.3125 34.4990234375 230 124 c 6
 168 169 l 5
 168 231 l 5
 189 231 l 5
 270 172 l 6
 386.805664062 86.9189453125 438 56 499 56 c 7
 617 56 702 181 702 369 c 7
 702 539 629 678 427 678 c 7xde
 367 678 311 668 252 650 c 5
 239 650 l 5
 239 717 l 5xee
 308 735 383 738 434 738 c 7xde
 684 738 768 574 768 371 c 7
 768 115 647 -4 496 -4 c 7
EndSplineSet
Fore
SplineSet
486 -4 m 5xde
 451 -4 369.3125 44.4990234375 246 134 c 2
 184 179 l 1
 184 241 l 1
 205 241 l 1
 286 182 l 2
 402.805664062 96.9189453125 460 56 498 56 c 1
 567 110 602 227.49609375 602 369 c 3
 602 539 519 678 317 678 c 3xde
 257 678 191 668 132 650 c 1
 119 650 l 1
 119 717 l 1xee
 188 735 273 738 324 738 c 3
 574 738 668 574 668 371 c 3
 668 180.178710938 619 76 526 0 c 1
 486 -4 l 5xde
154 0 m 1
 88 0 l 1
 88 269 l 2
 88 439 156 510 266 510 c 3
 381 510 428 441 428 341 c 3
 428 236 381 178 304 133 c 1
 286 148 l 1
 268 173 l 1
 327 208 362 252 362 337 c 3
 362 400 335 450 262 450 c 3
 168 450 154 364 154 262 c 2
 154 0 l 1
EndSplineSet
LCarets2: 1 740
Ligature2: "ligature-digraph-1" n g
EndChar
StartChar: omacron
Encoding: 333 333 36
Width: 500
Flags: W
HStem: -4 60<203.423 408.935> 26 60<375.277 443> 409 61<306.182 369> 664 63<285.823 404> 678 60<216.066 402.933>
VStem: 77 66<114.653 283.686> 107 66<500.575 635.494>
LayerCount: 2
Fore
SplineSet
443 26 m 1x64
 391 1 335 -4 278 -4 c 3
 169 -4 77 65 77 196 c 0xa4
 77 291 133 373 223 408 c 1
 222 415 l 1
 156 426 107 488 107 564 c 0
 107 688 206 738 283 738 c 0xaa
 329 738 362 735 404 727 c 1
 404 664 l 1
 393 664 l 1x32
 355 675 323 678 284 678 c 0
 241 678 173 649 173 567 c 0x2a
 173 499 225 457 293 457 c 0
 314 457 335 462 358 470 c 1
 369 470 l 1
 369 409 l 1
 256 375 143 325 143 196 c 0
 143 100 210 56 286 56 c 3xac
 332 56 375 60 426 86 c 1
 443 86 l 1
 443 26 l 1x64
EndSplineSet
LCarets2: 1 500
EndChar
StartChar: oe
Encoding: 339 339 2
Width: 590
Flags: W
HStem: -4 60<189.012 327.488> 486 20G<90 156 428 494>
VStem: 90 66<90.2155 506> 428 66<0 734>
LayerCount: 2
Fore
SplineSet
90 506 m 1
 156 506 l 1
 156 174 l 2
 156 119 177 56 245 56 c 3
 316 56 379 103 435 173 c 1
 470 145 l 1
 424 73 347 -4 240 -4 c 3
 130 -4 90 76 90 174 c 2
 90 506 l 1
428 734 m 1
 494 734 l 25
 494 0 l 1
 428 0 l 1
 428 734 l 1
EndSplineSet
LCarets2: 1 590
EndChar
StartChar: rcaron
Encoding: 345 345 43
Width: 730
Flags: W
HStem: 4 60<189 339 396 507.283> 43 21<339 396> 201 62<189 247.312> 450 60<197.653 312.463> 670 64<693.671 730>
VStem: 88 66<0 401.944> 330 66<325.126 432.391> 373 66<72.7972 191.995> 562 66<124.656 604.111>
LayerCount: 2
Back
SplineSet
618 -4 m 7
 520 -4 446.373147948 33.2513734318 324 124 c 6
 235 190 l 5
 235 252 l 5
 256 252 l 5
 364 172 l 6
 480.148975759 85.9637216598 531 56 618 56 c 7
 692 56 742 114 742 235 c 6
 742 445 l 6
 742 613 766 678 897 734 c 5
 910 734 l 5
 910 670 l 5
 808 626 808 564 808 434 c 6
 808 238 l 6
 808 56 722 -4 618 -4 c 7
252 510 m 7
 329.103515625 510 383 466 381.251953125 391 c 5
 386.034179688 389.506835938 l 5
 408.2109375 404.491210938 437.84765625 411 465 411 c 7
 545.752929688 411 600 359.204101562 600 271 c 7
 600 173.337890625 508.239257812 112.385742188 438.69921875 80.2900390625 c 5
 413.09375 128.767578125 l 5
 463.036132812 151.818359375 534 196.298828125 534 268 c 7
 534 324.033203125 511.236328125 351 465 351 c 7
 409.875 351 382 321 324 236 c 5
 309 236 l 5
 309 327 l 5
 320.720703125 345.391601562 324 360.900390625 324 381 c 7
 324 425.12109375 296.580078125 450 252 450 c 7
 192.637695312 450 157.348632812 385.999023438 157 285.913085938 c 6
 157 285.913085938 156 -1.0966796875 156 -1.1328125 c 5
 90 -0.9033203125 l 5
 91 282.086914062 l 6
 91.61328125 457.9765625 180.61328125 510 252 510 c 7
518 -4 m 3
 420 -4 349.333028692 36.2668799156 224 124 c 2
 114 200 l 1
 114 262 l 1
 135 262 l 1
 264 172 l 2
 383.777156438 90.2915521972 431 56 518 56 c 3
 592 56 642 114 642 235 c 2
 642 445 l 2
 642 613 666 678 797 734 c 1
 810 734 l 1
 810 670 l 1
 708 626 708 564 708 434 c 2
 708 238 l 2
 708 56 622 -4 518 -4 c 3
11 -1 m 25
 12 286 l 18
 12.4208984375 421.004882812 83 480 145 480 c 3
 204 480 257 439 257 380 c 27
 257 336 234 311 206 272 c 1
 253 342 295 381 363 381 c 3
 415.038085938 381 465 357 465 278 c 3
 465 198 391 132 326 102 c 1025
145 510 m 0
 215.236307158 510 280.407170527 463.930285754 289.034486764 395.506686308 c 1
 311.211314158 405.491495559 335.848131393 411 363 411 c 0
 390.93744302 411 420.963880541 405.433562615 446.576272036 388.169374274 c 0
 479.433239724 366.021935265 498 328.23965437 498 278 c 0
 498 234.73782439 480.261600915 196.09489396 455.35748541 164.217626114 c 0
 422.8471608 122.604410613 379.495625769 93.0427381171 336.698754111 73.2903358133 c 1
 311.093788701 128.767760869 l 1
 342.731880647 143.369957152 377.82339567 168.582790557 401.512199089 198.904458934 c 0
 420.503831183 223.213748015 432 250.151064499 432 278 c 0
 432 315.538123407 419.726072583 331.583003007 407.323387172 339.94310858 c 0
 396.728056188 347.084955903 381.318633369 351 363 351 c 0
 333.608030642 351 312.995241756 342.849235409 290.801244389 324.218210482 c 0
 280.253145431 315.363480615 269.507919604 303.857825235 258.347542243 289.779035816 c 0
 250.296938283 278.050749423 241.940564686 267.174738496 233.654856253 255.633930321 c 1
 177.811753244 287.598017955 l 1
 186.60664182 300.69678808 195.346634982 312.974984431 204.325864322 324.363833754 c 0
 217.498903456 343.783422707 224 358.327379579 224 380 c 0
 224 421.121435142 187.579603725 450 145 450 c 0
 119.887153301 450 85.4147352639 434.224401785 63.4877558043 385.047129934 c 0
 52.5380226592 360.489346926 45.1301932959 327.716686181 44.999864903 285.91332499 c 2
 44.999864903 285.91332499 43.9998312653 -1.0968652086 43.9997050175 -1.13309833246 c 1
 -21.9998312653 -0.903134791403 l 1
 -20.999864903 286.08667501 l 2
 -20.8495943376 334.286569028 -12.386112937 374.626104463 2.29378354751 407.549802937 c 0
 31.6260633472 473.335494048 87.4461800327 510 145 510 c 0
EndSplineSet
Fore
SplineSet
273 215 m 7x7d80
 243 215 224 210.904296875 200 201 c 5
 189 201 l 5
 189 263 l 5
 275 289.365234375 330 323.51171875 330 380.349609375 c 7
 330 425.349609375 299.900390625 450 256.700195312 450 c 7
 198.987304688 450 154 404 154 302 c 6
 154 0 l 5
 88 0 l 5
 88 309 l 6
 88 436 166.284179688 510 262.299804688 510 c 7
 337.5 510 396 454.203125 396 386.650390625 c 7x7e80
 396 313.693359375 360 290 323 272 c 5
 324 268 l 5
 375 263 439 229 439 136 c 7x7d80
 439 103.365234375 421 67 396 43 c 5x7e80
 339 43 l 5
 339 59 l 5
 368 88 373 118.6953125 373 140 c 7
 373 201 318.3984375 215 273 215 c 7x7d80
438 64 m 3xbc80
 512 64 562 114 562 235 c 2
 562 445 l 2
 562 613 586 678 717 734 c 1
 730 734 l 1
 730 670 l 1
 628 626 628 564 628 434 c 2
 628 238 l 2
 628 56 542 4 438 4 c 0
 189 4 l 29
 189 64 l 29
 438 64 l 3xbc80
EndSplineSet
LCarets2: 1 730
Ligature2: "ligature-digraph-1" r h
EndChar
StartChar: scaron
Encoding: 353 353 41
Width: 740
Flags: W
HStem: -178 58<438 484.359> 486 20G<92 158 331 397 567.277 648>
VStem: 92 66<91 506> 331 66<0 506> 582 66<-18.4011 414>
LayerCount: 2
Back
SplineSet
92 506 m 5
 158 506 l 5
 158 91 l 5
 588 506 l 5
 648 506 l 5
 648 0 l 5
 582 0 l 5
 582 414 l 5
 156 0 l 5
 92 0 l 5
 92 506 l 5
EndSplineSet
Fore
SplineSet
648 96 m 6
 648 -17 615 -119 456 -178 c 1
 438 -178 l 1
 438 -120 l 1
 535 -87 582 -20 582 96 c 2
 582 414 l 1
 156 0 l 1
 92 0 l 1
 92 506 l 1
 158 506 l 1
 158 91 l 1
 588 506 l 1
 648 506 l 1
 648 96 l 6
331 506 m 1
 397 506 l 25
 397 0 l 1
 331 0 l 25
 331 506 l 1
EndSplineSet
LCarets2: 1 740
Ligature2: "ligature-digraph-1" s h
EndChar
StartChar: tcaron
Encoding: 357 357 59
Width: 590
Flags: W
HStem: -4 61<160.392 387.86> 276 60<212.92 396.237> 442 60<158 466>
VStem: 92 66<62.9551 235.681 297.334 442> 436 66<101.165 236.895>
LayerCount: 2
Fore
SplineSet
436 173 m 0
 436 228 395 276 327 276 c 0
 264.345703125 276 208.69921875 261.063476562 158 219.805664062 c 1
 158 66.8369140625 l 1
 207.104492188 57.138671875 248.556790663 57 295 57 c 0
 382 57 436 92 436 173 c 0
92 14 m 1
 92 502 l 1
 466 502 l 1
 466 442 l 1
 158 442 l 1
 158 297.333984375 l 1
 202.408203125 323.625 260.5078125 336 332 336 c 0
 442 336 502 271 502 173 c 0
 502 49 404 -4 296 -4 c 0
 228 -4 156.315429688 1.8974609375 92 14 c 1
EndSplineSet
LCarets2: 1 590
Ligature2: "ligature-digraph-1" t uni02BC
EndChar
StartChar: umacron
Encoding: 363 363 51
Width: 750
Flags: W
HStem: -4 21G<297.474 436.01> 30 26<339 405> 486 20G<88 154 339 405 593 663>
VStem: 88 66<172.741 506> 339 66<30 506> 593 67<351.866 506> 608 66<212.448 505.288>
LayerCount: 2
Fore
SplineSet
339 506 m 1xf8
 405 506 l 25
 405 30 l 1
 339 30 l 25
 339 506 l 1xf8
373 -4 m 3
 221.947265625 -4 88 67 88 263 c 2
 88 506 l 1
 154 506 l 1
 154 271 l 2
 154 117 269 56 373 56 c 3
 500.565669363 56 608 147 608 348 c 0xfa
 608 423 598 471 593 491 c 1
 593 506 l 1
 660 506 l 1xfc
 666 481 674 431 674 348 c 0xfa
 674 75 499.019839708 -4 373 -4 c 3
EndSplineSet
LCarets2: 1 750
EndChar
StartChar: zcaron
Encoding: 382 382 42
Width: 590
Flags: W
HStem: -178 58<308 365.77> -4 60<193.251 339.9> 486 20G<432 498> 665 60<85 174.734> 678 60<85.7351 214.392>
VStem: 82 66<102.778 297.993> 231 66<515.255 662.553> 432 66<-50.0994 96 173 506>
LayerCount: 2
Back
SplineSet
432 506 m 1xce
 498 506 l 25
 498 -178 l 1
 432 -178 l 25
 432 506 l 1xce
432 506 m 1xce
 498 506 l 1
 498 0 l 1
 432 0 l 1
 432 506 l 1xce
138 186 m 3
 138 112 178 56 246 56 c 3
 317 56 364 90 425 173 c 1
 460 145 l 1
 407 59 348 -4 241 -4 c 3
 131 -4 72 80 72 186 c 3
 72 324 146.378378378 389 200 436 c 0
 297 510 326 559 326 631 c 0xec
 326 658 314 698 300 718 c 1
 300 734 l 1
 370 734 l 1xf4
 384 709 392 664 392 626 c 0xec
 392 544 336 461 240 388 c 0
 164.754098361 319 138 277 138 186 c 3
301 -116 m 1xf2
 406 -70 422 2 422 132 c 2
 422 343 l 1
 488 343 l 1
 488 132 l 2
 488 -36 453 -118 314 -178 c 1
 301 -178 l 1
 301 -116 l 1xf2
158 0 m 1x3c
 92 0 l 25
 92 506 l 1
 158 506 l 25
 158 0 l 1x3c
428 332 m 2
 428 387 407 450 339 450 c 3
 268 450 211 403 155 333 c 1
 120 361 l 1
 166 433 237 510 344 510 c 3
 454 510 494 430 494 332 c 2
 494 132 l 2
 494 -66 494 -182 289 -182 c 3xbc
 253.944335938 -182 210 -181 151 -168 c 1
 151 -102 l 1
 164 -102 l 1x7c
 214 -115 262.516601562 -120 300 -120 c 3xbc
 426.013671875 -120 428 -30 428 132 c 2
 428 332 l 2
EndSplineSet
Fore
SplineSet
432 506 m 1xe7
 498 506 l 1
 498 96 l 2
 498 -17 485 -140 326 -178 c 1
 308 -178 l 1
 308 -120 l 1
 423 -97 432 -20 432 96 c 2
 432 506 l 1xe7
148 186 m 3
 148 112 188 56 256 56 c 3
 327 56 374 90 435 173 c 1
 470 145 l 1
 417 59 358 -4 251 -4 c 3
 141 -4 82 80 82 186 c 3
 82 370.271538768 231 479.982907231 231 597 c 3
 231 654.271484375 199.24609375 678 176 678 c 0xef
 149 678 122 674 101 665 c 1
 85 665 l 1
 85 725 l 1xf7
 111 733 139 738 177 738 c 0xef
 240.90234375 738 297 708.174804688 297 605 c 3
 297 443.553414406 148 368.002747232 148 186 c 3
EndSplineSet
LCarets2: 1 590
Ligature2: "ligature-digraph-1" z h
EndChar
StartChar: uni0195
Encoding: 405 405 62
Width: 580
Flags: W
HStem: -4 60<186.851 330.579> 486 20G<422 488> 671 60<108 340>
VStem: 82 66<99.9214 298.72> 422 66<0 506>
LayerCount: 2
Fore
SplineSet
422 506 m 1
 488 506 l 25
 488 0 l 1
 422 0 l 25
 422 506 l 1
82 179 m 3
 82 329.333007812 155 473 341 667 c 1
 340 671 l 1
 108 668 l 1
 108 728 l 1
 428 731 l 1
 428 665 l 1
 248 477 148 329.212890625 148 179 c 3
 148 124 179 56 238 56 c 3
 319 56 372 94 435 173 c 1
 470 145 l 1
 420 70 350 -4 233 -4 c 3
 135 -4 82 71 82 179 c 3
EndSplineSet
LCarets2: 1 580
Ligature2: "ligature-digraph-1" w h
EndChar
StartChar: uni01A3
Encoding: 419 419 64
Width: 580
Flags: W
HStem: -4 60<173.555 397.547> 486 20G<96 162> 674 60<450.16 509>
VStem: 96 66<-178 30.0107 82.0713 506> 361 68<437.206 654.525> 441 66<98.6555 315.827>
LayerCount: 2
Back
SplineSet
0 -116 m 5
 105 -70 121 2 121 132 c 6
 121 506 l 5
 187 506 l 5
 187 132 l 6
 187 -36 152 -118 13 -178 c 5
 0 -178 l 5
 0 -116 l 5
EndSplineSet
Fore
SplineSet
162 82.0712890625 m 1
 222.455078125 61.0673828125 263 56 302 56 c 3
 388.874023438 56 441 87.8580690023 441 176 c 3
 441 332.003205095 361 412 361 580 c 3
 361 690 424.342773438 734 509 734 c 1
 509 674 l 1
 452 674 429 642.309570312 429 584 c 3
 429 421.987304688 507 332.269757436 507 182 c 3
 507 61.9625058575 440.125976562 -4 292 -4 c 3
 242.197265625 -4 188.643554688 6.9990234375 138 30.0107421875 c 1
 162 82.0712890625 l 1
96 -178 m 1
 96 -32 96 506 96 506 c 1
 162 506 l 1
 162 -178 l 17
 96 -178 l 1
EndSplineSet
LCarets2: 1 580
Ligature2: "ligature-digraph-1" g h
EndChar
StartChar: uni01C6
Encoding: 454 454 32
Width: 790
Flags: W
HStem: -182 60<505.619 621.308> 326 58<335 374.145> 670 64<753.671 790> 678 60<216.012 348.747>
VStem: 94 66<0 259 330 609.487> 379 66<500.247 647.19> 406 66<-82.4762 296.162> 622 66<-117.215 604.111>
LayerCount: 2
Back
SplineSet
84 -114 m 5xfa
 246 -46 445 61 445 248 c 4xfa
 445 304 407 353 345 353 c 4
 313 353 241 329 151 259 c 5
 152 330 l 5
 304 422 379 486 379 584 c 4
 379 639 343 678 290 678 c 4
 183 678 160 586 160 479 c 6
 160 0 l 5
 94 0 l 5
 94 475 l 6
 94 616 137 738 293 738 c 4
 383 738 445 678 445 588 c 4xfc
 445 520 402 450 352 413 c 5
 353 409 l 5
 455 406 511 324 511 251 c 4
 511 22 281 -93 98 -178 c 5
 84 -178 l 5
 84 -114 l 5xfa
406 57 m 3xb6
 406 -128.270507812 461 -182 547 -182 c 0
 633 -182 688 -112 688 -32 c 0
 688 131 688 271 688 434 c 0
 688 564 688 626 790 670 c 1
 790 734 l 1
 777 734 l 1
 646 678 622 613 622 445 c 0
 622 282 622 128 622 -35 c 0
 622 -79 593 -122 550 -122 c 0
 505 -122 472 -92.052734375 472 60 c 3xd6
 472 240.099609375 418 322 298 339 c 1
 298 344 l 1
 401 417 446 483 446 576 c 3
 446 679 373 738 283 738 c 0
 142 738 94 619 94 478 c 2
 94 0 l 1
 160 0 l 1
 160 478 l 2
 160 585 187 678 283 678 c 0
 336 678 380 647 380 576 c 3xba
 380 497 346 448 203 349 c 1
 203 295 l 1
 348 286 406 224.19140625 406 57 c 3xb6
EndSplineSet
Fore
SplineSet
472 60 m 2xdb
 472 -72 502 -122 547 -122 c 0
 579 -122 608 -120 622 -106 c 9
 622 109 622 282 622 445 c 0
 622 613 646 678 777 734 c 1
 790 734 l 1
 790 670 l 1
 688 626 688 564 688 434 c 0
 688 271 688 78 688 -150 c 17
 654 -170 610 -182 544 -182 c 0
 458 -182 406 -110 406 57 c 2
 406 221 l 2xeb
 406 277 380 326 318 326 c 0
 286 326 232 319 151 259 c 1
 152 330 l 1
 304 422 379 486 379 584 c 0
 379 639 343 678 290 678 c 0
 183 678 160 586 160 479 c 2
 160 0 l 1
 94 0 l 1
 94 475 l 2
 94 616 137 738 293 738 c 0
 383 738 445 678 445 588 c 0xdd
 445 520 412 445.72 334 388 c 1
 335 384 l 1
 437 381 472 297 472 224 c 2
 472 60 l 2xdb
EndSplineSet
LCarets2: 1 790
Ligature2: "ligature-digraph-1" x h
EndChar
StartChar: uni01F3
Encoding: 499 499 31
Width: 580
Flags: W
HStem: -178 64<84 130.344> 0 21G<94 160> 353 56<353 405.458> 678 60<216.012 348.747>
VStem: 94 66<0 259 330 609.487> 379 66<500.363 647.19> 445 66<151.333 315.999>
LayerCount: 2
Back
SplineSet
160 0 m 1
 94 0 l 1
 94 478 l 2
 94 619 142 738 283 738 c 0
 373 738 446 679 446 576 c 3
 446 483 401 417 298 344 c 1
 298 339 l 1
 418 322 516 244.014648438 516 104 c 3
 516 -86 392 -152 196 -178 c 1
 172 -178 l 1
 172 -118 l 1
 344 -100 450 -51.0771484375 450 101 c 3
 450 230.869140625 348 286 203 295 c 1
 203 349 l 1
 346 448 380 497 380 576 c 3
 380 647 336 678 283 678 c 0
 187 678 160 585 160 478 c 2
 160 0 l 1
EndSplineSet
Fore
SplineSet
84 -114 m 1xfa
 246 -46 445 61 445 248 c 0xfa
 445 304 407 353 345 353 c 0
 313 353 241 329 151 259 c 1
 152 330 l 1
 304 422 379 486 379 584 c 0
 379 639 343 678 290 678 c 0
 183 678 160 586 160 479 c 2
 160 0 l 1
 94 0 l 1
 94 475 l 2
 94 616 137 738 293 738 c 0
 383 738 445 678 445 588 c 0xfc
 445 520 402 450 352 413 c 1
 353 409 l 1
 455 406 511 324 511 251 c 0
 511 22 281 -93 98 -178 c 1
 84 -178 l 1
 84 -114 l 1xfa
EndSplineSet
EndChar
StartChar: uni021B
Encoding: 539 539 67
Width: 570
Flags: W
HStem: -4 60<188.021 325.153> 714 20G<345.5 474>
VStem: 72 66<115.164 347.862> 408 66<0 734>
LayerCount: 2
Fore
SplineSet
408 734 m 1
 435 681 l 1
 355 610 138 458.05078125 138 230 c 3
 138 100.94140625 193.948242188 56 245 56 c 3
 300.145507812 56 354 80 415 173 c 1
 450 145 l 1
 390 46 326.208984375 -4 240 -4 c 3
 139.919921875 -4 72 63.7060546875 72 224 c 3
 72 474.362304688 283 638 408 734 c 1
408 734 m 1
 474 734 l 25
 474 0 l 1
 408 0 l 1
 408 734 l 1
EndSplineSet
LCarets2: 1 570
Ligature2: "ligature-digraph-1" t h
EndChar
StartChar: uni0233
Encoding: 563 563 61
Width: 590
Flags: W
HStem: -4 60<271.523 413 479 579> 20 40<413 479> 486 20G<88 154> 642 73<146 215.012> 678 60<192.07 373.467>
VStem: 88 66<172.741 506> 413 66<20 633.494>
LayerCount: 2
Fore
SplineSet
413 508 m 7x6e
 413 618.624023438 393 678 306 678 c 3x6e
 259 678 227 671.697265625 156 642 c 1
 146 642 l 1
 146 715 l 1x36
 220 735.198242188 252 738 308 738 c 3
 418.075195312 738 479 690.127929688 479 498 c 7
 479 422 479 20 479 20 c 5
 413 20 l 29
 413 234 413 427 413 508 c 7x6e
373 -4 m 3xa6
 221.947265625 -4 88 67 88 263 c 2
 88 506 l 1
 154 506 l 1
 154 271 l 2
 154 117 269 56 373 56 c 3xa6
 444 56 490 57 574 60 c 9
 579 60 l 1x66
 579 0 l 1
 495 -3 432 -4 373 -4 c 3xa6
EndSplineSet
EndChar
StartChar: uni023C
Encoding: 572 572 63
Width: 560
Flags: W
HStem: -182 60<134.741 371.217> -142 71<63 118.364> 171 60<180.622 388.528> 442 60<158 456>
VStem: 92 66<209 442> 440 66<-53.0738 120.338>
LayerCount: 2
Fore
SplineSet
308 231 m 3xbc
 426 231 506 162 506 38 c 3
 506 -85 429 -182 284 -182 c 3xbc
 201 -182 134 -176 62 -142 c 1
 63 -71 l 1
 80 -71 l 1x7c
 149 -117 213 -122 284 -122 c 3
 396 -122 440 -45 440 35 c 3
 440 125 392 171 304 171 c 3
 240 171 201 163 136 126 c 1
 92 126 l 1
 92 502 l 1
 456 502 l 1
 456 442 l 1
 158 442 l 1
 158 209 l 1
 208 228 244 231 308 231 c 3xbc
EndSplineSet
LCarets2: 1 560
Ligature2: "ligature-digraph-1" c h
EndChar
StartChar: uni1E09
Encoding: 7689 7689 66
Width: 590
Flags: W
HStem: -178 62<290 331.722> 0 21G<92 158> 442 60<158 432>
VStem: 92 66<0 442> 432 66<-16.789 442>
LayerCount: 2
Fore
SplineSet
158 442 m 1
 158 0 l 1
 92 0 l 1
 92 502 l 1
 498 502 l 1
 498 378.666666667 498 255.333333333 498 132 c 0
 498 -36 464 -110 303 -178 c 1
 290 -178 l 1
 290 -116 l 1
 420 -59 432 2.03844062326 432 132 c 2
 432 442 l 1
 158 442 l 1
EndSplineSet
LCarets2: 1 590
Ligature2: "ligature-digraph-1" q uni02BC
EndChar
StartChar: uni1E2B
Encoding: 7723 7723 53
Width: 620
Flags: W
HStem: -4 60<159.352 373.903> 508 21G<112 214.389> 714 20G<112 178 429.333 528>
VStem: 92 66<68.4192 341> 112 66<580 734> 462 66<154.58 657>
LayerCount: 2
Back
SplineSet
432 657 m 5
 156 508 l 5
 92 508 l 5
 92 734 l 5
 158 734 l 5
 158 580 l 5
 438 730 l 5
 498 730 l 5
 498 730 498 473.33203125 498 342 c 4
 498 233.8125 478 103 340 12 c 5
 336 0 l 5
 257 0 l 5
 82 168 l 5
 82 244 l 5
 100 244 l 5
 290 63 l 5
 408 101.530273438 431 248.174804688 431 337 c 4
 431 427.717773438 432 657 432 657 c 5
271 -4 m 3
 224 -4 154 -1 94 13 c 9
 94 70 l 1
 94 342 l 1
 160 342 l 1
 160 65 l 1
 198 58 230 56 274 56 c 3
 404 56 432 224 432 337 c 2
 432 657 l 1
 158 508 l 1
 94 508 l 1
 94 734 l 1
 160 734 l 1
 160 580 l 1
 438 730 l 1
 498 730 l 1
 498 342 l 2
 498 136 440 -4 271 -4 c 3
301 -4 m 3
 215 -4 154 -1 94 13 c 1
 94 341 l 1
 160 341 l 1
 160 65 l 1
 198 58 243 56 304 56 c 3
 432 56 451 188.174804688 451 277 c 2
 452 664 l 1
 158 528 l 1
 94 528 l 1
 94 734 l 1
 160 734 l 1
 160 593 l 1
 458 730 l 1
 518 730 l 1
 518 282 l 2
 518 127 470 -4 301 -4 c 3
216 148 m 25
 390 13 l 25
 389 0 l 1049
EndSplineSet
Fore
SplineSet
528 297 m 2xec
 528 53 415 -4 262 -4 c 0
 202 -4 152 4 92 25 c 9
 92 85 l 1
 92 341 l 1
 158 341 l 1
 158 75 l 1xf4
 196 62 229 56 257 56 c 0
 375 56 462 93 462 292 c 2
 462 657 l 1
 176 508 l 1
 112 508 l 1
 112 734 l 1
 178 734 l 1
 178 580 l 1
 468 730 l 1
 528 730 l 1
 528 297 l 2xec
EndSplineSet
EndChar
StartChar: uni1E31
Encoding: 7729 7729 54
Width: 560
Flags: W
HStem: 0 21G<92 192.716 402 468> 486 20G<92 158 367.284 468>
VStem: 92 66<72 302.346 372 506> 402 66<0 134 203.654 434>
LayerCount: 2
Fore
SplineSet
468 0 m 1
 402 0 l 1
 402 134 l 1
 156 0 l 1
 92 0 l 1
 92 506 l 1
 158 506 l 1
 158 372 l 1
 404 506 l 1
 468 506 l 1
 468 0 l 1
158 302.345703125 m 1
 158 72 l 1
 402 203.654296875 l 1
 402 434 l 1
 158 302.345703125 l 1
EndSplineSet
LCarets2: 1 560
Ligature2: "ligature-digraph-1" k uni02BC
EndChar
StartChar: uni1E55
Encoding: 7765 7765 55
Width: 660
Flags: W
HStem: -178 62<187 228.722> 106 60<384 467.12> 448 60<127.647 476.099>
VStem: 92 66<0 442> 329 66<-16.789 132 166 342> 384 11<106 166> 539 66<235.285 391.373>
LayerCount: 2
Back
SplineSet
395 -178 m 17xf4
 329 -178 l 9
 329 342 l 1
 395 342 l 1
 395 -178 l 17xf4
125 312 m 1
 196 422 276 480 386 480 c 27
 474 480 530 430 530 342 c 3
 530 246 465 184 356 169 c 1
 356 -44 272 -152 186 -152 c 1033
EndSplineSet
Fore
SplineSet
395 132 m 2xfa
 395 -36 361 -110 200 -178 c 1
 187 -178 l 1
 187 -116 l 1
 317 -59 329 2 329 132 c 2
 329 342 l 25
 395 342 l 25
 395 132 l 2xfa
158 0 m 1
 92 0 l 1
 92 502 l 1
 203.059195369 504.817187804 297.35128391 508 384 508 c 3
 517.55078125 508 605 447.307617188 605 322 c 0
 605 196.193359375 511.112304688 106 384 106 c 1
 384 166 l 1
 480.188476562 166 539 230.139648438 539 322 c 0
 539 408.770507812 464 448 384 448 c 3xf6
 296 448 158 442 158 442 c 1
 158 0 l 1
EndSplineSet
LCarets2: 1 660
Ligature2: "ligature-digraph-1" p uni02BC
EndChar
StartChar: uniA751
Encoding: 42833 42833 56
Width: 780
Flags: W
HStem: -4 60<420.59 574.026> 450 60<466.74 589.925> 678 60<197.581 321.571>
VStem: 94 66<0 632.791> 322 66<84.4958 369.322 424 672.549> 642 66<136.717 386.186>
LayerCount: 2
Fore
SplineSet
94 0 m 1
 94 228 94 447 94 447 c 2
 94 610 110.306640625 738 252 738 c 3
 295.185546875 738 350 724 388 703 c 9
 388 424 l 1
 433 485 476 510 543 510 c 3
 628 510 708 439 708 276 c 3
 708 80 613 -4 496 -4 c 3
 436.06640625 -4 376 26 322 60 c 1
 322 664 l 17
 305 674 279.0625 678 247 678 c 3
 177 678 160 604 160 460 c 2
 160 460 160 229 160 0 c 1
 94 0 l 1
388 104 m 1
 418 70 466.772460938 56 502 56 c 3
 592 56 642 130 642 271 c 3
 642 395 587 450 537 450 c 3
 480 450 445 421 388 342 c 1
 388 104 l 1
EndSplineSet
LCarets2: 1 780
Ligature2: "ligature-digraph-1" p h
EndChar
